%TF.GenerationSoftware,KiCad,Pcbnew,(6.0.8-1)-1*%
%TF.CreationDate,2022-12-05T17:27:23+03:00*%
%TF.ProjectId,MilkPompV2,4d696c6b-506f-46d7-9056-322e6b696361,V1*%
%TF.SameCoordinates,Original*%
%TF.FileFunction,Legend,Top*%
%TF.FilePolarity,Positive*%
%FSLAX46Y46*%
G04 Gerber Fmt 4.6, Leading zero omitted, Abs format (unit mm)*
G04 Created by KiCad (PCBNEW (6.0.8-1)-1) date 2022-12-05 17:27:23*
%MOMM*%
%LPD*%
G01*
G04 APERTURE LIST*
%ADD10C,0.300000*%
%ADD11C,0.150000*%
%ADD12C,0.015000*%
%ADD13C,0.120000*%
%ADD14C,0.100000*%
%ADD15C,0.127000*%
%ADD16C,0.200000*%
%ADD17C,0.152400*%
G04 APERTURE END LIST*
D10*
X222079428Y-100286857D02*
X223579428Y-100286857D01*
X223579428Y-100644000D01*
X223508000Y-100858285D01*
X223365142Y-101001142D01*
X223222285Y-101072571D01*
X222936571Y-101144000D01*
X222722285Y-101144000D01*
X222436571Y-101072571D01*
X222293714Y-101001142D01*
X222150857Y-100858285D01*
X222079428Y-100644000D01*
X222079428Y-100286857D01*
X222079428Y-101786857D02*
X223579428Y-101786857D01*
X222150857Y-102429714D02*
X222079428Y-102644000D01*
X222079428Y-103001142D01*
X222150857Y-103144000D01*
X222222285Y-103215428D01*
X222365142Y-103286857D01*
X222508000Y-103286857D01*
X222650857Y-103215428D01*
X222722285Y-103144000D01*
X222793714Y-103001142D01*
X222865142Y-102715428D01*
X222936571Y-102572571D01*
X223008000Y-102501142D01*
X223150857Y-102429714D01*
X223293714Y-102429714D01*
X223436571Y-102501142D01*
X223508000Y-102572571D01*
X223579428Y-102715428D01*
X223579428Y-103072571D01*
X223508000Y-103286857D01*
X222079428Y-103929714D02*
X223579428Y-103929714D01*
X223579428Y-104501142D01*
X223508000Y-104644000D01*
X223436571Y-104715428D01*
X223293714Y-104786857D01*
X223079428Y-104786857D01*
X222936571Y-104715428D01*
X222865142Y-104644000D01*
X222793714Y-104501142D01*
X222793714Y-103929714D01*
X222079428Y-106144000D02*
X222079428Y-105429714D01*
X223579428Y-105429714D01*
X222508000Y-106572571D02*
X222508000Y-107286857D01*
X222079428Y-106429714D02*
X223579428Y-106929714D01*
X222079428Y-107429714D01*
X222793714Y-108215428D02*
X222079428Y-108215428D01*
X223579428Y-107715428D02*
X222793714Y-108215428D01*
X223579428Y-108715428D01*
X218039142Y-122583309D02*
X217967714Y-122797595D01*
X217896285Y-122869023D01*
X217753428Y-122940452D01*
X217539142Y-122940452D01*
X217396285Y-122869023D01*
X217324857Y-122797595D01*
X217253428Y-122654737D01*
X217253428Y-122083309D01*
X218753428Y-122083309D01*
X218753428Y-122583309D01*
X218682000Y-122726166D01*
X218610571Y-122797595D01*
X218467714Y-122869023D01*
X218324857Y-122869023D01*
X218182000Y-122797595D01*
X218110571Y-122726166D01*
X218039142Y-122583309D01*
X218039142Y-122083309D01*
X218753428Y-123369023D02*
X218753428Y-124226166D01*
X217253428Y-123797595D02*
X218753428Y-123797595D01*
X217253428Y-124726166D02*
X218753428Y-124726166D01*
X217253428Y-125583309D01*
X218753428Y-125583309D01*
X217110571Y-125940452D02*
X217110571Y-127083309D01*
X217253428Y-127440452D02*
X218753428Y-127440452D01*
X218753428Y-128440452D02*
X218753428Y-128726166D01*
X218682000Y-128869023D01*
X218539142Y-129011880D01*
X218253428Y-129083309D01*
X217753428Y-129083309D01*
X217467714Y-129011880D01*
X217324857Y-128869023D01*
X217253428Y-128726166D01*
X217253428Y-128440452D01*
X217324857Y-128297595D01*
X217467714Y-128154737D01*
X217753428Y-128083309D01*
X218253428Y-128083309D01*
X218539142Y-128154737D01*
X218682000Y-128297595D01*
X218753428Y-128440452D01*
X218039142Y-97616166D02*
X217967714Y-97830452D01*
X217896285Y-97901880D01*
X217753428Y-97973309D01*
X217539142Y-97973309D01*
X217396285Y-97901880D01*
X217324857Y-97830452D01*
X217253428Y-97687595D01*
X217253428Y-97116166D01*
X218753428Y-97116166D01*
X218753428Y-97616166D01*
X218682000Y-97759023D01*
X218610571Y-97830452D01*
X218467714Y-97901880D01*
X218324857Y-97901880D01*
X218182000Y-97830452D01*
X218110571Y-97759023D01*
X218039142Y-97616166D01*
X218039142Y-97116166D01*
X218753428Y-98401880D02*
X218753428Y-99259023D01*
X217253428Y-98830452D02*
X218753428Y-98830452D01*
X217253428Y-99759023D02*
X218753428Y-99759023D01*
X217253428Y-100616166D01*
X218753428Y-100616166D01*
X217110571Y-100973309D02*
X217110571Y-102116166D01*
X217324857Y-102401880D02*
X217253428Y-102616166D01*
X217253428Y-102973309D01*
X217324857Y-103116166D01*
X217396285Y-103187595D01*
X217539142Y-103259023D01*
X217682000Y-103259023D01*
X217824857Y-103187595D01*
X217896285Y-103116166D01*
X217967714Y-102973309D01*
X218039142Y-102687595D01*
X218110571Y-102544737D01*
X218182000Y-102473309D01*
X218324857Y-102401880D01*
X218467714Y-102401880D01*
X218610571Y-102473309D01*
X218682000Y-102544737D01*
X218753428Y-102687595D01*
X218753428Y-103044737D01*
X218682000Y-103259023D01*
X218753428Y-103687595D02*
X218753428Y-104544737D01*
X217253428Y-104116166D02*
X218753428Y-104116166D01*
X217682000Y-104973309D02*
X217682000Y-105687595D01*
X217253428Y-104830452D02*
X218753428Y-105330452D01*
X217253428Y-105830452D01*
X217253428Y-107187595D02*
X217967714Y-106687595D01*
X217253428Y-106330452D02*
X218753428Y-106330452D01*
X218753428Y-106901880D01*
X218682000Y-107044737D01*
X218610571Y-107116166D01*
X218467714Y-107187595D01*
X218253428Y-107187595D01*
X218110571Y-107116166D01*
X218039142Y-107044737D01*
X217967714Y-106901880D01*
X217967714Y-106330452D01*
X218753428Y-107616166D02*
X218753428Y-108473309D01*
X217253428Y-108044737D02*
X218753428Y-108044737D01*
X218039142Y-74934737D02*
X217967714Y-75149023D01*
X217896285Y-75220452D01*
X217753428Y-75291880D01*
X217539142Y-75291880D01*
X217396285Y-75220452D01*
X217324857Y-75149023D01*
X217253428Y-75006166D01*
X217253428Y-74434737D01*
X218753428Y-74434737D01*
X218753428Y-74934737D01*
X218682000Y-75077595D01*
X218610571Y-75149023D01*
X218467714Y-75220452D01*
X218324857Y-75220452D01*
X218182000Y-75149023D01*
X218110571Y-75077595D01*
X218039142Y-74934737D01*
X218039142Y-74434737D01*
X218753428Y-75720452D02*
X218753428Y-76577595D01*
X217253428Y-76149023D02*
X218753428Y-76149023D01*
X217253428Y-77077595D02*
X218753428Y-77077595D01*
X217253428Y-77934737D01*
X218753428Y-77934737D01*
X217110571Y-78291880D02*
X217110571Y-79434737D01*
X217253428Y-79791880D02*
X218753428Y-79791880D01*
X217682000Y-80291880D01*
X218753428Y-80791880D01*
X217253428Y-80791880D01*
X218753428Y-81791880D02*
X218753428Y-82077595D01*
X218682000Y-82220452D01*
X218539142Y-82363309D01*
X218253428Y-82434737D01*
X217753428Y-82434737D01*
X217467714Y-82363309D01*
X217324857Y-82220452D01*
X217253428Y-82077595D01*
X217253428Y-81791880D01*
X217324857Y-81649023D01*
X217467714Y-81506166D01*
X217753428Y-81434737D01*
X218253428Y-81434737D01*
X218539142Y-81506166D01*
X218682000Y-81649023D01*
X218753428Y-81791880D01*
X217253428Y-83077595D02*
X218753428Y-83077595D01*
X218753428Y-83434737D01*
X218682000Y-83649023D01*
X218539142Y-83791880D01*
X218396285Y-83863309D01*
X218110571Y-83934737D01*
X217896285Y-83934737D01*
X217610571Y-83863309D01*
X217467714Y-83791880D01*
X217324857Y-83649023D01*
X217253428Y-83434737D01*
X217253428Y-83077595D01*
X218039142Y-84577595D02*
X218039142Y-85077595D01*
X217253428Y-85291880D02*
X217253428Y-84577595D01*
X218753428Y-84577595D01*
X218753428Y-85291880D01*
X171276095Y-123089523D02*
X169976095Y-123089523D01*
X170904666Y-122656190D01*
X169976095Y-122222857D01*
X171276095Y-122222857D01*
X171276095Y-121046666D02*
X170595142Y-121046666D01*
X170471333Y-121108571D01*
X170409428Y-121232380D01*
X170409428Y-121480000D01*
X170471333Y-121603809D01*
X171214190Y-121046666D02*
X171276095Y-121170476D01*
X171276095Y-121480000D01*
X171214190Y-121603809D01*
X171090380Y-121665714D01*
X170966571Y-121665714D01*
X170842761Y-121603809D01*
X170780857Y-121480000D01*
X170780857Y-121170476D01*
X170718952Y-121046666D01*
X171276095Y-120427619D02*
X170409428Y-120427619D01*
X169976095Y-120427619D02*
X170038000Y-120489523D01*
X170099904Y-120427619D01*
X170038000Y-120365714D01*
X169976095Y-120427619D01*
X170099904Y-120427619D01*
X170409428Y-119808571D02*
X171276095Y-119808571D01*
X170533238Y-119808571D02*
X170471333Y-119746666D01*
X170409428Y-119622857D01*
X170409428Y-119437142D01*
X170471333Y-119313333D01*
X170595142Y-119251428D01*
X171276095Y-119251428D01*
X171276095Y-118632380D02*
X169976095Y-118632380D01*
X170471333Y-118632380D02*
X170409428Y-118508571D01*
X170409428Y-118260952D01*
X170471333Y-118137142D01*
X170533238Y-118075238D01*
X170657047Y-118013333D01*
X171028476Y-118013333D01*
X171152285Y-118075238D01*
X171214190Y-118137142D01*
X171276095Y-118260952D01*
X171276095Y-118508571D01*
X171214190Y-118632380D01*
X171276095Y-117270476D02*
X171214190Y-117394285D01*
X171152285Y-117456190D01*
X171028476Y-117518095D01*
X170657047Y-117518095D01*
X170533238Y-117456190D01*
X170471333Y-117394285D01*
X170409428Y-117270476D01*
X170409428Y-117084761D01*
X170471333Y-116960952D01*
X170533238Y-116899047D01*
X170657047Y-116837142D01*
X171028476Y-116837142D01*
X171152285Y-116899047D01*
X171214190Y-116960952D01*
X171276095Y-117084761D01*
X171276095Y-117270476D01*
X171276095Y-115722857D02*
X170595142Y-115722857D01*
X170471333Y-115784761D01*
X170409428Y-115908571D01*
X170409428Y-116156190D01*
X170471333Y-116280000D01*
X171214190Y-115722857D02*
X171276095Y-115846666D01*
X171276095Y-116156190D01*
X171214190Y-116280000D01*
X171090380Y-116341904D01*
X170966571Y-116341904D01*
X170842761Y-116280000D01*
X170780857Y-116156190D01*
X170780857Y-115846666D01*
X170718952Y-115722857D01*
X171276095Y-115103809D02*
X170409428Y-115103809D01*
X170657047Y-115103809D02*
X170533238Y-115041904D01*
X170471333Y-114980000D01*
X170409428Y-114856190D01*
X170409428Y-114732380D01*
X171276095Y-113741904D02*
X169976095Y-113741904D01*
X171214190Y-113741904D02*
X171276095Y-113865714D01*
X171276095Y-114113333D01*
X171214190Y-114237142D01*
X171152285Y-114299047D01*
X171028476Y-114360952D01*
X170657047Y-114360952D01*
X170533238Y-114299047D01*
X170471333Y-114237142D01*
X170409428Y-114113333D01*
X170409428Y-113865714D01*
X170471333Y-113741904D01*
X171152285Y-111389523D02*
X171214190Y-111451428D01*
X171276095Y-111637142D01*
X171276095Y-111760952D01*
X171214190Y-111946666D01*
X171090380Y-112070476D01*
X170966571Y-112132380D01*
X170718952Y-112194285D01*
X170533238Y-112194285D01*
X170285619Y-112132380D01*
X170161809Y-112070476D01*
X170038000Y-111946666D01*
X169976095Y-111760952D01*
X169976095Y-111637142D01*
X170038000Y-111451428D01*
X170099904Y-111389523D01*
X171276095Y-110646666D02*
X171214190Y-110770476D01*
X171152285Y-110832380D01*
X171028476Y-110894285D01*
X170657047Y-110894285D01*
X170533238Y-110832380D01*
X170471333Y-110770476D01*
X170409428Y-110646666D01*
X170409428Y-110460952D01*
X170471333Y-110337142D01*
X170533238Y-110275238D01*
X170657047Y-110213333D01*
X171028476Y-110213333D01*
X171152285Y-110275238D01*
X171214190Y-110337142D01*
X171276095Y-110460952D01*
X171276095Y-110646666D01*
X170409428Y-109656190D02*
X171276095Y-109656190D01*
X170533238Y-109656190D02*
X170471333Y-109594285D01*
X170409428Y-109470476D01*
X170409428Y-109284761D01*
X170471333Y-109160952D01*
X170595142Y-109099047D01*
X171276095Y-109099047D01*
X170409428Y-108480000D02*
X171276095Y-108480000D01*
X170533238Y-108480000D02*
X170471333Y-108418095D01*
X170409428Y-108294285D01*
X170409428Y-108108571D01*
X170471333Y-107984761D01*
X170595142Y-107922857D01*
X171276095Y-107922857D01*
X171214190Y-106808571D02*
X171276095Y-106932380D01*
X171276095Y-107180000D01*
X171214190Y-107303809D01*
X171090380Y-107365714D01*
X170595142Y-107365714D01*
X170471333Y-107303809D01*
X170409428Y-107180000D01*
X170409428Y-106932380D01*
X170471333Y-106808571D01*
X170595142Y-106746666D01*
X170718952Y-106746666D01*
X170842761Y-107365714D01*
X171214190Y-105632380D02*
X171276095Y-105756190D01*
X171276095Y-106003809D01*
X171214190Y-106127619D01*
X171152285Y-106189523D01*
X171028476Y-106251428D01*
X170657047Y-106251428D01*
X170533238Y-106189523D01*
X170471333Y-106127619D01*
X170409428Y-106003809D01*
X170409428Y-105756190D01*
X170471333Y-105632380D01*
X170409428Y-105260952D02*
X170409428Y-104765714D01*
X169976095Y-105075238D02*
X171090380Y-105075238D01*
X171214190Y-105013333D01*
X171276095Y-104889523D01*
X171276095Y-104765714D01*
X171276095Y-104146666D02*
X171214190Y-104270476D01*
X171152285Y-104332380D01*
X171028476Y-104394285D01*
X170657047Y-104394285D01*
X170533238Y-104332380D01*
X170471333Y-104270476D01*
X170409428Y-104146666D01*
X170409428Y-103960952D01*
X170471333Y-103837142D01*
X170533238Y-103775238D01*
X170657047Y-103713333D01*
X171028476Y-103713333D01*
X171152285Y-103775238D01*
X171214190Y-103837142D01*
X171276095Y-103960952D01*
X171276095Y-104146666D01*
X171276095Y-103156190D02*
X170409428Y-103156190D01*
X170657047Y-103156190D02*
X170533238Y-103094285D01*
X170471333Y-103032380D01*
X170409428Y-102908571D01*
X170409428Y-102784761D01*
X166365523Y-96612857D02*
X167356000Y-96612857D01*
X166860761Y-97108095D02*
X166860761Y-96117619D01*
X167851238Y-95808095D02*
X168656000Y-95808095D01*
X168222666Y-96303333D01*
X168408380Y-96303333D01*
X168532190Y-96365238D01*
X168594095Y-96427142D01*
X168656000Y-96550952D01*
X168656000Y-96860476D01*
X168594095Y-96984285D01*
X168532190Y-97046190D01*
X168408380Y-97108095D01*
X168036952Y-97108095D01*
X167913142Y-97046190D01*
X167851238Y-96984285D01*
X169027428Y-95808095D02*
X169460761Y-97108095D01*
X169894095Y-95808095D01*
X170203619Y-95808095D02*
X171008380Y-95808095D01*
X170575047Y-96303333D01*
X170760761Y-96303333D01*
X170884571Y-96365238D01*
X170946476Y-96427142D01*
X171008380Y-96550952D01*
X171008380Y-96860476D01*
X170946476Y-96984285D01*
X170884571Y-97046190D01*
X170760761Y-97108095D01*
X170389333Y-97108095D01*
X170265523Y-97046190D01*
X170203619Y-96984285D01*
X167030523Y-93457000D02*
X166906714Y-93395095D01*
X166721000Y-93395095D01*
X166535285Y-93457000D01*
X166411476Y-93580809D01*
X166349571Y-93704619D01*
X166287666Y-93952238D01*
X166287666Y-94137952D01*
X166349571Y-94385571D01*
X166411476Y-94509380D01*
X166535285Y-94633190D01*
X166721000Y-94695095D01*
X166844809Y-94695095D01*
X167030523Y-94633190D01*
X167092428Y-94571285D01*
X167092428Y-94137952D01*
X166844809Y-94137952D01*
X167649571Y-94695095D02*
X167649571Y-93395095D01*
X168392428Y-94695095D01*
X168392428Y-93395095D01*
X169011476Y-94695095D02*
X169011476Y-93395095D01*
X169321000Y-93395095D01*
X169506714Y-93457000D01*
X169630523Y-93580809D01*
X169692428Y-93704619D01*
X169754333Y-93952238D01*
X169754333Y-94137952D01*
X169692428Y-94385571D01*
X169630523Y-94509380D01*
X169506714Y-94633190D01*
X169321000Y-94695095D01*
X169011476Y-94695095D01*
X166409238Y-91966190D02*
X166594952Y-92028095D01*
X166904476Y-92028095D01*
X167028285Y-91966190D01*
X167090190Y-91904285D01*
X167152095Y-91780476D01*
X167152095Y-91656666D01*
X167090190Y-91532857D01*
X167028285Y-91470952D01*
X166904476Y-91409047D01*
X166656857Y-91347142D01*
X166533047Y-91285238D01*
X166471142Y-91223333D01*
X166409238Y-91099523D01*
X166409238Y-90975714D01*
X166471142Y-90851904D01*
X166533047Y-90790000D01*
X166656857Y-90728095D01*
X166966380Y-90728095D01*
X167152095Y-90790000D01*
X167585428Y-90728095D02*
X167894952Y-92028095D01*
X168142571Y-91099523D01*
X168390190Y-92028095D01*
X168699714Y-90728095D01*
X169194952Y-92028095D02*
X169194952Y-90728095D01*
X169504476Y-90728095D01*
X169690190Y-90790000D01*
X169814000Y-90913809D01*
X169875904Y-91037619D01*
X169937809Y-91285238D01*
X169937809Y-91470952D01*
X169875904Y-91718571D01*
X169814000Y-91842380D01*
X169690190Y-91966190D01*
X169504476Y-92028095D01*
X169194952Y-92028095D01*
X170494952Y-92028095D02*
X170494952Y-90728095D01*
X171361619Y-90728095D02*
X171609238Y-90728095D01*
X171733047Y-90790000D01*
X171856857Y-90913809D01*
X171918761Y-91161428D01*
X171918761Y-91594761D01*
X171856857Y-91842380D01*
X171733047Y-91966190D01*
X171609238Y-92028095D01*
X171361619Y-92028095D01*
X171237809Y-91966190D01*
X171114000Y-91842380D01*
X171052095Y-91594761D01*
X171052095Y-91161428D01*
X171114000Y-90913809D01*
X171237809Y-90790000D01*
X171361619Y-90728095D01*
X166350523Y-89426190D02*
X166536238Y-89488095D01*
X166845761Y-89488095D01*
X166969571Y-89426190D01*
X167031476Y-89364285D01*
X167093380Y-89240476D01*
X167093380Y-89116666D01*
X167031476Y-88992857D01*
X166969571Y-88930952D01*
X166845761Y-88869047D01*
X166598142Y-88807142D01*
X166474333Y-88745238D01*
X166412428Y-88683333D01*
X166350523Y-88559523D01*
X166350523Y-88435714D01*
X166412428Y-88311904D01*
X166474333Y-88250000D01*
X166598142Y-88188095D01*
X166907666Y-88188095D01*
X167093380Y-88250000D01*
X167526714Y-88188095D02*
X167836238Y-89488095D01*
X168083857Y-88559523D01*
X168331476Y-89488095D01*
X168641000Y-88188095D01*
X169879095Y-89364285D02*
X169817190Y-89426190D01*
X169631476Y-89488095D01*
X169507666Y-89488095D01*
X169321952Y-89426190D01*
X169198142Y-89302380D01*
X169136238Y-89178571D01*
X169074333Y-88930952D01*
X169074333Y-88745238D01*
X169136238Y-88497619D01*
X169198142Y-88373809D01*
X169321952Y-88250000D01*
X169507666Y-88188095D01*
X169631476Y-88188095D01*
X169817190Y-88250000D01*
X169879095Y-88311904D01*
X171055285Y-89488095D02*
X170436238Y-89488095D01*
X170436238Y-88188095D01*
X171488619Y-89488095D02*
X171488619Y-88188095D01*
X172231476Y-89488095D02*
X171674333Y-88745238D01*
X172231476Y-88188095D02*
X171488619Y-88930952D01*
X157000142Y-74250357D02*
X157214428Y-74321785D01*
X157285857Y-74393214D01*
X157357285Y-74536071D01*
X157357285Y-74750357D01*
X157285857Y-74893214D01*
X157214428Y-74964642D01*
X157071571Y-75036071D01*
X156500142Y-75036071D01*
X156500142Y-73536071D01*
X157000142Y-73536071D01*
X157143000Y-73607500D01*
X157214428Y-73678928D01*
X157285857Y-73821785D01*
X157285857Y-73964642D01*
X157214428Y-74107500D01*
X157143000Y-74178928D01*
X157000142Y-74250357D01*
X156500142Y-74250357D01*
X158643000Y-74036071D02*
X158643000Y-75036071D01*
X158000142Y-74036071D02*
X158000142Y-74821785D01*
X158071571Y-74964642D01*
X158214428Y-75036071D01*
X158428714Y-75036071D01*
X158571571Y-74964642D01*
X158643000Y-74893214D01*
X159214428Y-74036071D02*
X160000142Y-74036071D01*
X159214428Y-75036071D01*
X160000142Y-75036071D01*
X160428714Y-74036071D02*
X161214428Y-74036071D01*
X160428714Y-75036071D01*
X161214428Y-75036071D01*
X162357285Y-74964642D02*
X162214428Y-75036071D01*
X161928714Y-75036071D01*
X161785857Y-74964642D01*
X161714428Y-74821785D01*
X161714428Y-74250357D01*
X161785857Y-74107500D01*
X161928714Y-74036071D01*
X162214428Y-74036071D01*
X162357285Y-74107500D01*
X162428714Y-74250357D01*
X162428714Y-74393214D01*
X161714428Y-74536071D01*
X163071571Y-75036071D02*
X163071571Y-74036071D01*
X163071571Y-74321785D02*
X163143000Y-74178928D01*
X163214428Y-74107500D01*
X163357285Y-74036071D01*
X163500142Y-74036071D01*
X100667571Y-76243571D02*
X100167571Y-75529285D01*
X99810428Y-76243571D02*
X99810428Y-74743571D01*
X100381857Y-74743571D01*
X100524714Y-74815000D01*
X100596142Y-74886428D01*
X100667571Y-75029285D01*
X100667571Y-75243571D01*
X100596142Y-75386428D01*
X100524714Y-75457857D01*
X100381857Y-75529285D01*
X99810428Y-75529285D01*
X101881857Y-76172142D02*
X101739000Y-76243571D01*
X101453285Y-76243571D01*
X101310428Y-76172142D01*
X101239000Y-76029285D01*
X101239000Y-75457857D01*
X101310428Y-75315000D01*
X101453285Y-75243571D01*
X101739000Y-75243571D01*
X101881857Y-75315000D01*
X101953285Y-75457857D01*
X101953285Y-75600714D01*
X101239000Y-75743571D01*
X102810428Y-76243571D02*
X102667571Y-76172142D01*
X102596142Y-76029285D01*
X102596142Y-74743571D01*
X104024714Y-76243571D02*
X104024714Y-75457857D01*
X103953285Y-75315000D01*
X103810428Y-75243571D01*
X103524714Y-75243571D01*
X103381857Y-75315000D01*
X104024714Y-76172142D02*
X103881857Y-76243571D01*
X103524714Y-76243571D01*
X103381857Y-76172142D01*
X103310428Y-76029285D01*
X103310428Y-75886428D01*
X103381857Y-75743571D01*
X103524714Y-75672142D01*
X103881857Y-75672142D01*
X104024714Y-75600714D01*
X104596142Y-75243571D02*
X104953285Y-76243571D01*
X105310428Y-75243571D02*
X104953285Y-76243571D01*
X104810428Y-76600714D01*
X104739000Y-76672142D01*
X104596142Y-76743571D01*
X92456142Y-116344000D02*
X92313285Y-116272571D01*
X92099000Y-116272571D01*
X91884714Y-116344000D01*
X91741857Y-116486857D01*
X91670428Y-116629714D01*
X91599000Y-116915428D01*
X91599000Y-117129714D01*
X91670428Y-117415428D01*
X91741857Y-117558285D01*
X91884714Y-117701142D01*
X92099000Y-117772571D01*
X92241857Y-117772571D01*
X92456142Y-117701142D01*
X92527571Y-117629714D01*
X92527571Y-117129714D01*
X92241857Y-117129714D01*
X93170428Y-117772571D02*
X93170428Y-116272571D01*
X94027571Y-117772571D01*
X94027571Y-116272571D01*
X94741857Y-117772571D02*
X94741857Y-116272571D01*
X95099000Y-116272571D01*
X95313285Y-116344000D01*
X95456142Y-116486857D01*
X95527571Y-116629714D01*
X95599000Y-116915428D01*
X95599000Y-117129714D01*
X95527571Y-117415428D01*
X95456142Y-117558285D01*
X95313285Y-117701142D01*
X95099000Y-117772571D01*
X94741857Y-117772571D01*
X92329142Y-106692000D02*
X92186285Y-106620571D01*
X91972000Y-106620571D01*
X91757714Y-106692000D01*
X91614857Y-106834857D01*
X91543428Y-106977714D01*
X91472000Y-107263428D01*
X91472000Y-107477714D01*
X91543428Y-107763428D01*
X91614857Y-107906285D01*
X91757714Y-108049142D01*
X91972000Y-108120571D01*
X92114857Y-108120571D01*
X92329142Y-108049142D01*
X92400571Y-107977714D01*
X92400571Y-107477714D01*
X92114857Y-107477714D01*
X93043428Y-108120571D02*
X93043428Y-106620571D01*
X93900571Y-108120571D01*
X93900571Y-106620571D01*
X94614857Y-108120571D02*
X94614857Y-106620571D01*
X94972000Y-106620571D01*
X95186285Y-106692000D01*
X95329142Y-106834857D01*
X95400571Y-106977714D01*
X95472000Y-107263428D01*
X95472000Y-107477714D01*
X95400571Y-107763428D01*
X95329142Y-107906285D01*
X95186285Y-108049142D01*
X94972000Y-108120571D01*
X94614857Y-108120571D01*
X91337142Y-102723142D02*
X92480000Y-102723142D01*
X91908571Y-103294571D02*
X91908571Y-102151714D01*
X93980000Y-103294571D02*
X93122857Y-103294571D01*
X93551428Y-103294571D02*
X93551428Y-101794571D01*
X93408571Y-102008857D01*
X93265714Y-102151714D01*
X93122857Y-102223142D01*
X94551428Y-101937428D02*
X94622857Y-101866000D01*
X94765714Y-101794571D01*
X95122857Y-101794571D01*
X95265714Y-101866000D01*
X95337142Y-101937428D01*
X95408571Y-102080285D01*
X95408571Y-102223142D01*
X95337142Y-102437428D01*
X94480000Y-103294571D01*
X95408571Y-103294571D01*
X95837142Y-101794571D02*
X96337142Y-103294571D01*
X96837142Y-101794571D01*
X91944285Y-97301857D02*
X91444285Y-97301857D01*
X91444285Y-98087571D02*
X91444285Y-96587571D01*
X92158571Y-96587571D01*
X93444285Y-98087571D02*
X92730000Y-98087571D01*
X92730000Y-96587571D01*
X94230000Y-96587571D02*
X94515714Y-96587571D01*
X94658571Y-96659000D01*
X94801428Y-96801857D01*
X94872857Y-97087571D01*
X94872857Y-97587571D01*
X94801428Y-97873285D01*
X94658571Y-98016142D01*
X94515714Y-98087571D01*
X94230000Y-98087571D01*
X94087142Y-98016142D01*
X93944285Y-97873285D01*
X93872857Y-97587571D01*
X93872857Y-97087571D01*
X93944285Y-96801857D01*
X94087142Y-96659000D01*
X94230000Y-96587571D01*
X95372857Y-96587571D02*
X95730000Y-98087571D01*
X96015714Y-97016142D01*
X96301428Y-98087571D01*
X96658571Y-96587571D01*
X91531428Y-93134571D02*
X91531428Y-91634571D01*
X92388571Y-93134571D01*
X92388571Y-91634571D01*
X93960000Y-92991714D02*
X93888571Y-93063142D01*
X93674285Y-93134571D01*
X93531428Y-93134571D01*
X93317142Y-93063142D01*
X93174285Y-92920285D01*
X93102857Y-92777428D01*
X93031428Y-92491714D01*
X93031428Y-92277428D01*
X93102857Y-91991714D01*
X93174285Y-91848857D01*
X93317142Y-91706000D01*
X93531428Y-91634571D01*
X93674285Y-91634571D01*
X93888571Y-91706000D01*
X93960000Y-91777428D01*
X91495714Y-87800571D02*
X91495714Y-86300571D01*
X92352857Y-87800571D01*
X92352857Y-86300571D01*
X93352857Y-86300571D02*
X93638571Y-86300571D01*
X93781428Y-86372000D01*
X93924285Y-86514857D01*
X93995714Y-86800571D01*
X93995714Y-87300571D01*
X93924285Y-87586285D01*
X93781428Y-87729142D01*
X93638571Y-87800571D01*
X93352857Y-87800571D01*
X93210000Y-87729142D01*
X93067142Y-87586285D01*
X92995714Y-87300571D01*
X92995714Y-86800571D01*
X93067142Y-86514857D01*
X93210000Y-86372000D01*
X93352857Y-86300571D01*
X91543285Y-82847571D02*
X91543285Y-81347571D01*
X92257571Y-82847571D02*
X92257571Y-81347571D01*
X93114714Y-82847571D01*
X93114714Y-81347571D01*
X91308523Y-122012857D02*
X92299000Y-122012857D01*
X91803761Y-122508095D02*
X91803761Y-121517619D01*
X93599000Y-122508095D02*
X92856142Y-122508095D01*
X93227571Y-122508095D02*
X93227571Y-121208095D01*
X93103761Y-121393809D01*
X92979952Y-121517619D01*
X92856142Y-121579523D01*
X94094238Y-121331904D02*
X94156142Y-121270000D01*
X94279952Y-121208095D01*
X94589476Y-121208095D01*
X94713285Y-121270000D01*
X94775190Y-121331904D01*
X94837095Y-121455714D01*
X94837095Y-121579523D01*
X94775190Y-121765238D01*
X94032333Y-122508095D01*
X94837095Y-122508095D01*
X95208523Y-121208095D02*
X95641857Y-122508095D01*
X96075190Y-121208095D01*
X100946190Y-114160952D02*
X100946190Y-111660952D01*
X101779523Y-113446666D01*
X102612857Y-111660952D01*
X102612857Y-114160952D01*
X103803333Y-114160952D02*
X103803333Y-112494285D01*
X103803333Y-111660952D02*
X103684285Y-111780000D01*
X103803333Y-111899047D01*
X103922380Y-111780000D01*
X103803333Y-111660952D01*
X103803333Y-111899047D01*
X105350952Y-114160952D02*
X105112857Y-114041904D01*
X104993809Y-113803809D01*
X104993809Y-111660952D01*
X106303333Y-114160952D02*
X106303333Y-111660952D01*
X106541428Y-113208571D02*
X107255714Y-114160952D01*
X107255714Y-112494285D02*
X106303333Y-113446666D01*
X108327142Y-114160952D02*
X108327142Y-111660952D01*
X109279523Y-111660952D01*
X109517619Y-111780000D01*
X109636666Y-111899047D01*
X109755714Y-112137142D01*
X109755714Y-112494285D01*
X109636666Y-112732380D01*
X109517619Y-112851428D01*
X109279523Y-112970476D01*
X108327142Y-112970476D01*
X111184285Y-114160952D02*
X110946190Y-114041904D01*
X110827142Y-113922857D01*
X110708095Y-113684761D01*
X110708095Y-112970476D01*
X110827142Y-112732380D01*
X110946190Y-112613333D01*
X111184285Y-112494285D01*
X111541428Y-112494285D01*
X111779523Y-112613333D01*
X111898571Y-112732380D01*
X112017619Y-112970476D01*
X112017619Y-113684761D01*
X111898571Y-113922857D01*
X111779523Y-114041904D01*
X111541428Y-114160952D01*
X111184285Y-114160952D01*
X113089047Y-114160952D02*
X113089047Y-112494285D01*
X113089047Y-112732380D02*
X113208095Y-112613333D01*
X113446190Y-112494285D01*
X113803333Y-112494285D01*
X114041428Y-112613333D01*
X114160476Y-112851428D01*
X114160476Y-114160952D01*
X114160476Y-112851428D02*
X114279523Y-112613333D01*
X114517619Y-112494285D01*
X114874761Y-112494285D01*
X115112857Y-112613333D01*
X115231904Y-112851428D01*
X115231904Y-114160952D01*
X116422380Y-112494285D02*
X116422380Y-114994285D01*
X116422380Y-112613333D02*
X116660476Y-112494285D01*
X117136666Y-112494285D01*
X117374761Y-112613333D01*
X117493809Y-112732380D01*
X117612857Y-112970476D01*
X117612857Y-113684761D01*
X117493809Y-113922857D01*
X117374761Y-114041904D01*
X117136666Y-114160952D01*
X116660476Y-114160952D01*
X116422380Y-114041904D01*
D11*
%TO.C,R6*%
X235179880Y-112243666D02*
X234703690Y-112577000D01*
X235179880Y-112815095D02*
X234179880Y-112815095D01*
X234179880Y-112434142D01*
X234227500Y-112338904D01*
X234275119Y-112291285D01*
X234370357Y-112243666D01*
X234513214Y-112243666D01*
X234608452Y-112291285D01*
X234656071Y-112338904D01*
X234703690Y-112434142D01*
X234703690Y-112815095D01*
X234179880Y-111386523D02*
X234179880Y-111577000D01*
X234227500Y-111672238D01*
X234275119Y-111719857D01*
X234417976Y-111815095D01*
X234608452Y-111862714D01*
X234989404Y-111862714D01*
X235084642Y-111815095D01*
X235132261Y-111767476D01*
X235179880Y-111672238D01*
X235179880Y-111481761D01*
X235132261Y-111386523D01*
X235084642Y-111338904D01*
X234989404Y-111291285D01*
X234751309Y-111291285D01*
X234656071Y-111338904D01*
X234608452Y-111386523D01*
X234560833Y-111481761D01*
X234560833Y-111672238D01*
X234608452Y-111767476D01*
X234656071Y-111815095D01*
X234751309Y-111862714D01*
%TO.C,C1*%
X131964133Y-100422141D02*
X131916514Y-100469760D01*
X131773657Y-100517379D01*
X131678419Y-100517379D01*
X131535561Y-100469760D01*
X131440323Y-100374522D01*
X131392704Y-100279284D01*
X131345085Y-100088808D01*
X131345085Y-99945951D01*
X131392704Y-99755475D01*
X131440323Y-99660237D01*
X131535561Y-99564999D01*
X131678419Y-99517379D01*
X131773657Y-99517379D01*
X131916514Y-99564999D01*
X131964133Y-99612618D01*
X132916514Y-100517379D02*
X132345085Y-100517379D01*
X132630800Y-100517379D02*
X132630800Y-99517379D01*
X132535561Y-99660237D01*
X132440323Y-99755475D01*
X132345085Y-99803094D01*
%TO.C,R17*%
X136745742Y-111755180D02*
X136412409Y-111278990D01*
X136174314Y-111755180D02*
X136174314Y-110755180D01*
X136555266Y-110755180D01*
X136650504Y-110802800D01*
X136698123Y-110850419D01*
X136745742Y-110945657D01*
X136745742Y-111088514D01*
X136698123Y-111183752D01*
X136650504Y-111231371D01*
X136555266Y-111278990D01*
X136174314Y-111278990D01*
X137698123Y-111755180D02*
X137126695Y-111755180D01*
X137412409Y-111755180D02*
X137412409Y-110755180D01*
X137317171Y-110898038D01*
X137221933Y-110993276D01*
X137126695Y-111040895D01*
X138031457Y-110755180D02*
X138698123Y-110755180D01*
X138269552Y-111755180D01*
%TO.C,LS1*%
X145238642Y-83225380D02*
X144762452Y-83225380D01*
X144762452Y-82225380D01*
X145524357Y-83177761D02*
X145667214Y-83225380D01*
X145905309Y-83225380D01*
X146000547Y-83177761D01*
X146048166Y-83130142D01*
X146095785Y-83034904D01*
X146095785Y-82939666D01*
X146048166Y-82844428D01*
X146000547Y-82796809D01*
X145905309Y-82749190D01*
X145714833Y-82701571D01*
X145619595Y-82653952D01*
X145571976Y-82606333D01*
X145524357Y-82511095D01*
X145524357Y-82415857D01*
X145571976Y-82320619D01*
X145619595Y-82273000D01*
X145714833Y-82225380D01*
X145952928Y-82225380D01*
X146095785Y-82273000D01*
X147048166Y-83225380D02*
X146476738Y-83225380D01*
X146762452Y-83225380D02*
X146762452Y-82225380D01*
X146667214Y-82368238D01*
X146571976Y-82463476D01*
X146476738Y-82511095D01*
%TO.C,R10*%
X229052380Y-93734857D02*
X228576190Y-94068190D01*
X229052380Y-94306285D02*
X228052380Y-94306285D01*
X228052380Y-93925333D01*
X228100000Y-93830095D01*
X228147619Y-93782476D01*
X228242857Y-93734857D01*
X228385714Y-93734857D01*
X228480952Y-93782476D01*
X228528571Y-93830095D01*
X228576190Y-93925333D01*
X228576190Y-94306285D01*
X229052380Y-92782476D02*
X229052380Y-93353904D01*
X229052380Y-93068190D02*
X228052380Y-93068190D01*
X228195238Y-93163428D01*
X228290476Y-93258666D01*
X228338095Y-93353904D01*
X228052380Y-92163428D02*
X228052380Y-92068190D01*
X228100000Y-91972952D01*
X228147619Y-91925333D01*
X228242857Y-91877714D01*
X228433333Y-91830095D01*
X228671428Y-91830095D01*
X228861904Y-91877714D01*
X228957142Y-91925333D01*
X229004761Y-91972952D01*
X229052380Y-92068190D01*
X229052380Y-92163428D01*
X229004761Y-92258666D01*
X228957142Y-92306285D01*
X228861904Y-92353904D01*
X228671428Y-92401523D01*
X228433333Y-92401523D01*
X228242857Y-92353904D01*
X228147619Y-92306285D01*
X228100000Y-92258666D01*
X228052380Y-92163428D01*
%TO.C,H9*%
X110998095Y-70612380D02*
X110998095Y-69612380D01*
X110998095Y-70088571D02*
X111569523Y-70088571D01*
X111569523Y-70612380D02*
X111569523Y-69612380D01*
X112093333Y-70612380D02*
X112283809Y-70612380D01*
X112379047Y-70564761D01*
X112426666Y-70517142D01*
X112521904Y-70374285D01*
X112569523Y-70183809D01*
X112569523Y-69802857D01*
X112521904Y-69707619D01*
X112474285Y-69660000D01*
X112379047Y-69612380D01*
X112188571Y-69612380D01*
X112093333Y-69660000D01*
X112045714Y-69707619D01*
X111998095Y-69802857D01*
X111998095Y-70040952D01*
X112045714Y-70136190D01*
X112093333Y-70183809D01*
X112188571Y-70231428D01*
X112379047Y-70231428D01*
X112474285Y-70183809D01*
X112521904Y-70136190D01*
X112569523Y-70040952D01*
%TO.C,J6*%
X83613666Y-119086380D02*
X83613666Y-119800666D01*
X83566047Y-119943523D01*
X83470809Y-120038761D01*
X83327952Y-120086380D01*
X83232714Y-120086380D01*
X84518428Y-119086380D02*
X84327952Y-119086380D01*
X84232714Y-119134000D01*
X84185095Y-119181619D01*
X84089857Y-119324476D01*
X84042238Y-119514952D01*
X84042238Y-119895904D01*
X84089857Y-119991142D01*
X84137476Y-120038761D01*
X84232714Y-120086380D01*
X84423190Y-120086380D01*
X84518428Y-120038761D01*
X84566047Y-119991142D01*
X84613666Y-119895904D01*
X84613666Y-119657809D01*
X84566047Y-119562571D01*
X84518428Y-119514952D01*
X84423190Y-119467333D01*
X84232714Y-119467333D01*
X84137476Y-119514952D01*
X84089857Y-119562571D01*
X84042238Y-119657809D01*
%TO.C,D2*%
X127909580Y-87098095D02*
X126909580Y-87098095D01*
X126909580Y-86860000D01*
X126957200Y-86717142D01*
X127052438Y-86621904D01*
X127147676Y-86574285D01*
X127338152Y-86526666D01*
X127481009Y-86526666D01*
X127671485Y-86574285D01*
X127766723Y-86621904D01*
X127861961Y-86717142D01*
X127909580Y-86860000D01*
X127909580Y-87098095D01*
X127004819Y-86145714D02*
X126957200Y-86098095D01*
X126909580Y-86002857D01*
X126909580Y-85764761D01*
X126957200Y-85669523D01*
X127004819Y-85621904D01*
X127100057Y-85574285D01*
X127195295Y-85574285D01*
X127338152Y-85621904D01*
X127909580Y-86193333D01*
X127909580Y-85574285D01*
%TO.C,C15*%
X141709442Y-131634742D02*
X141661823Y-131682361D01*
X141518966Y-131729980D01*
X141423728Y-131729980D01*
X141280871Y-131682361D01*
X141185633Y-131587123D01*
X141138014Y-131491885D01*
X141090395Y-131301409D01*
X141090395Y-131158552D01*
X141138014Y-130968076D01*
X141185633Y-130872838D01*
X141280871Y-130777600D01*
X141423728Y-130729980D01*
X141518966Y-130729980D01*
X141661823Y-130777600D01*
X141709442Y-130825219D01*
X142661823Y-131729980D02*
X142090395Y-131729980D01*
X142376109Y-131729980D02*
X142376109Y-130729980D01*
X142280871Y-130872838D01*
X142185633Y-130968076D01*
X142090395Y-131015695D01*
X143566585Y-130729980D02*
X143090395Y-130729980D01*
X143042776Y-131206171D01*
X143090395Y-131158552D01*
X143185633Y-131110933D01*
X143423728Y-131110933D01*
X143518966Y-131158552D01*
X143566585Y-131206171D01*
X143614204Y-131301409D01*
X143614204Y-131539504D01*
X143566585Y-131634742D01*
X143518966Y-131682361D01*
X143423728Y-131729980D01*
X143185633Y-131729980D01*
X143090395Y-131682361D01*
X143042776Y-131634742D01*
%TO.C,R20*%
X153233880Y-125081257D02*
X152757690Y-125414590D01*
X153233880Y-125652685D02*
X152233880Y-125652685D01*
X152233880Y-125271733D01*
X152281500Y-125176495D01*
X152329119Y-125128876D01*
X152424357Y-125081257D01*
X152567214Y-125081257D01*
X152662452Y-125128876D01*
X152710071Y-125176495D01*
X152757690Y-125271733D01*
X152757690Y-125652685D01*
X152329119Y-124700304D02*
X152281500Y-124652685D01*
X152233880Y-124557447D01*
X152233880Y-124319352D01*
X152281500Y-124224114D01*
X152329119Y-124176495D01*
X152424357Y-124128876D01*
X152519595Y-124128876D01*
X152662452Y-124176495D01*
X153233880Y-124747923D01*
X153233880Y-124128876D01*
X152233880Y-123509828D02*
X152233880Y-123414590D01*
X152281500Y-123319352D01*
X152329119Y-123271733D01*
X152424357Y-123224114D01*
X152614833Y-123176495D01*
X152852928Y-123176495D01*
X153043404Y-123224114D01*
X153138642Y-123271733D01*
X153186261Y-123319352D01*
X153233880Y-123414590D01*
X153233880Y-123509828D01*
X153186261Y-123605066D01*
X153138642Y-123652685D01*
X153043404Y-123700304D01*
X152852928Y-123747923D01*
X152614833Y-123747923D01*
X152424357Y-123700304D01*
X152329119Y-123652685D01*
X152281500Y-123605066D01*
X152233880Y-123509828D01*
%TO.C,R15*%
X139819142Y-99766380D02*
X139485809Y-99290190D01*
X139247714Y-99766380D02*
X139247714Y-98766380D01*
X139628666Y-98766380D01*
X139723904Y-98814000D01*
X139771523Y-98861619D01*
X139819142Y-98956857D01*
X139819142Y-99099714D01*
X139771523Y-99194952D01*
X139723904Y-99242571D01*
X139628666Y-99290190D01*
X139247714Y-99290190D01*
X140771523Y-99766380D02*
X140200095Y-99766380D01*
X140485809Y-99766380D02*
X140485809Y-98766380D01*
X140390571Y-98909238D01*
X140295333Y-99004476D01*
X140200095Y-99052095D01*
X141676285Y-98766380D02*
X141200095Y-98766380D01*
X141152476Y-99242571D01*
X141200095Y-99194952D01*
X141295333Y-99147333D01*
X141533428Y-99147333D01*
X141628666Y-99194952D01*
X141676285Y-99242571D01*
X141723904Y-99337809D01*
X141723904Y-99575904D01*
X141676285Y-99671142D01*
X141628666Y-99718761D01*
X141533428Y-99766380D01*
X141295333Y-99766380D01*
X141200095Y-99718761D01*
X141152476Y-99671142D01*
%TO.C,F1*%
X100046571Y-120970933D02*
X100046571Y-121304266D01*
X100570380Y-121304266D02*
X99570380Y-121304266D01*
X99570380Y-120828076D01*
X100570380Y-119923314D02*
X100570380Y-120494742D01*
X100570380Y-120209028D02*
X99570380Y-120209028D01*
X99713238Y-120304266D01*
X99808476Y-120399504D01*
X99856095Y-120494742D01*
%TO.C,C18*%
X138126742Y-118782057D02*
X138174361Y-118829676D01*
X138221980Y-118972533D01*
X138221980Y-119067771D01*
X138174361Y-119210628D01*
X138079123Y-119305866D01*
X137983885Y-119353485D01*
X137793409Y-119401104D01*
X137650552Y-119401104D01*
X137460076Y-119353485D01*
X137364838Y-119305866D01*
X137269600Y-119210628D01*
X137221980Y-119067771D01*
X137221980Y-118972533D01*
X137269600Y-118829676D01*
X137317219Y-118782057D01*
X138221980Y-117829676D02*
X138221980Y-118401104D01*
X138221980Y-118115390D02*
X137221980Y-118115390D01*
X137364838Y-118210628D01*
X137460076Y-118305866D01*
X137507695Y-118401104D01*
X137650552Y-117258247D02*
X137602933Y-117353485D01*
X137555314Y-117401104D01*
X137460076Y-117448723D01*
X137412457Y-117448723D01*
X137317219Y-117401104D01*
X137269600Y-117353485D01*
X137221980Y-117258247D01*
X137221980Y-117067771D01*
X137269600Y-116972533D01*
X137317219Y-116924914D01*
X137412457Y-116877295D01*
X137460076Y-116877295D01*
X137555314Y-116924914D01*
X137602933Y-116972533D01*
X137650552Y-117067771D01*
X137650552Y-117258247D01*
X137698171Y-117353485D01*
X137745790Y-117401104D01*
X137841028Y-117448723D01*
X138031504Y-117448723D01*
X138126742Y-117401104D01*
X138174361Y-117353485D01*
X138221980Y-117258247D01*
X138221980Y-117067771D01*
X138174361Y-116972533D01*
X138126742Y-116924914D01*
X138031504Y-116877295D01*
X137841028Y-116877295D01*
X137745790Y-116924914D01*
X137698171Y-116972533D01*
X137650552Y-117067771D01*
%TO.C,C16*%
X121378742Y-116271142D02*
X121331123Y-116318761D01*
X121188266Y-116366380D01*
X121093028Y-116366380D01*
X120950171Y-116318761D01*
X120854933Y-116223523D01*
X120807314Y-116128285D01*
X120759695Y-115937809D01*
X120759695Y-115794952D01*
X120807314Y-115604476D01*
X120854933Y-115509238D01*
X120950171Y-115414000D01*
X121093028Y-115366380D01*
X121188266Y-115366380D01*
X121331123Y-115414000D01*
X121378742Y-115461619D01*
X122331123Y-116366380D02*
X121759695Y-116366380D01*
X122045409Y-116366380D02*
X122045409Y-115366380D01*
X121950171Y-115509238D01*
X121854933Y-115604476D01*
X121759695Y-115652095D01*
X123188266Y-115366380D02*
X122997790Y-115366380D01*
X122902552Y-115414000D01*
X122854933Y-115461619D01*
X122759695Y-115604476D01*
X122712076Y-115794952D01*
X122712076Y-116175904D01*
X122759695Y-116271142D01*
X122807314Y-116318761D01*
X122902552Y-116366380D01*
X123093028Y-116366380D01*
X123188266Y-116318761D01*
X123235885Y-116271142D01*
X123283504Y-116175904D01*
X123283504Y-115937809D01*
X123235885Y-115842571D01*
X123188266Y-115794952D01*
X123093028Y-115747333D01*
X122902552Y-115747333D01*
X122807314Y-115794952D01*
X122759695Y-115842571D01*
X122712076Y-115937809D01*
%TO.C,R19*%
X136733542Y-116051580D02*
X136400209Y-115575390D01*
X136162114Y-116051580D02*
X136162114Y-115051580D01*
X136543066Y-115051580D01*
X136638304Y-115099200D01*
X136685923Y-115146819D01*
X136733542Y-115242057D01*
X136733542Y-115384914D01*
X136685923Y-115480152D01*
X136638304Y-115527771D01*
X136543066Y-115575390D01*
X136162114Y-115575390D01*
X137685923Y-116051580D02*
X137114495Y-116051580D01*
X137400209Y-116051580D02*
X137400209Y-115051580D01*
X137304971Y-115194438D01*
X137209733Y-115289676D01*
X137114495Y-115337295D01*
X138162114Y-116051580D02*
X138352590Y-116051580D01*
X138447828Y-116003961D01*
X138495447Y-115956342D01*
X138590685Y-115813485D01*
X138638304Y-115623009D01*
X138638304Y-115242057D01*
X138590685Y-115146819D01*
X138543066Y-115099200D01*
X138447828Y-115051580D01*
X138257352Y-115051580D01*
X138162114Y-115099200D01*
X138114495Y-115146819D01*
X138066876Y-115242057D01*
X138066876Y-115480152D01*
X138114495Y-115575390D01*
X138162114Y-115623009D01*
X138257352Y-115670628D01*
X138447828Y-115670628D01*
X138543066Y-115623009D01*
X138590685Y-115575390D01*
X138638304Y-115480152D01*
%TO.C,U1*%
X147828095Y-101245380D02*
X147828095Y-102054904D01*
X147875714Y-102150142D01*
X147923333Y-102197761D01*
X148018571Y-102245380D01*
X148209047Y-102245380D01*
X148304285Y-102197761D01*
X148351904Y-102150142D01*
X148399523Y-102054904D01*
X148399523Y-101245380D01*
X149399523Y-102245380D02*
X148828095Y-102245380D01*
X149113809Y-102245380D02*
X149113809Y-101245380D01*
X149018571Y-101388238D01*
X148923333Y-101483476D01*
X148828095Y-101531095D01*
%TO.C,R5*%
X142708333Y-103434579D02*
X142375000Y-102958389D01*
X142136904Y-103434579D02*
X142136904Y-102434579D01*
X142517857Y-102434579D01*
X142613095Y-102482199D01*
X142660714Y-102529818D01*
X142708333Y-102625056D01*
X142708333Y-102767913D01*
X142660714Y-102863151D01*
X142613095Y-102910770D01*
X142517857Y-102958389D01*
X142136904Y-102958389D01*
X143613095Y-102434579D02*
X143136904Y-102434579D01*
X143089285Y-102910770D01*
X143136904Y-102863151D01*
X143232142Y-102815532D01*
X143470238Y-102815532D01*
X143565476Y-102863151D01*
X143613095Y-102910770D01*
X143660714Y-103006008D01*
X143660714Y-103244103D01*
X143613095Y-103339341D01*
X143565476Y-103386960D01*
X143470238Y-103434579D01*
X143232142Y-103434579D01*
X143136904Y-103386960D01*
X143089285Y-103339341D01*
%TO.C,C6*%
X195777142Y-78269261D02*
X195824761Y-78316880D01*
X195872380Y-78459737D01*
X195872380Y-78554975D01*
X195824761Y-78697833D01*
X195729523Y-78793071D01*
X195634285Y-78840690D01*
X195443809Y-78888309D01*
X195300952Y-78888309D01*
X195110476Y-78840690D01*
X195015238Y-78793071D01*
X194920000Y-78697833D01*
X194872380Y-78554975D01*
X194872380Y-78459737D01*
X194920000Y-78316880D01*
X194967619Y-78269261D01*
X194872380Y-77412118D02*
X194872380Y-77602595D01*
X194920000Y-77697833D01*
X194967619Y-77745452D01*
X195110476Y-77840690D01*
X195300952Y-77888309D01*
X195681904Y-77888309D01*
X195777142Y-77840690D01*
X195824761Y-77793071D01*
X195872380Y-77697833D01*
X195872380Y-77507356D01*
X195824761Y-77412118D01*
X195777142Y-77364499D01*
X195681904Y-77316880D01*
X195443809Y-77316880D01*
X195348571Y-77364499D01*
X195300952Y-77412118D01*
X195253333Y-77507356D01*
X195253333Y-77697833D01*
X195300952Y-77793071D01*
X195348571Y-77840690D01*
X195443809Y-77888309D01*
%TO.C,U2*%
X102056095Y-104009380D02*
X102056095Y-104818904D01*
X102103714Y-104914142D01*
X102151333Y-104961761D01*
X102246571Y-105009380D01*
X102437047Y-105009380D01*
X102532285Y-104961761D01*
X102579904Y-104914142D01*
X102627523Y-104818904D01*
X102627523Y-104009380D01*
X103056095Y-104104619D02*
X103103714Y-104057000D01*
X103198952Y-104009380D01*
X103437047Y-104009380D01*
X103532285Y-104057000D01*
X103579904Y-104104619D01*
X103627523Y-104199857D01*
X103627523Y-104295095D01*
X103579904Y-104437952D01*
X103008476Y-105009380D01*
X103627523Y-105009380D01*
D12*
%TO.C,U4*%
X139862295Y-123336400D02*
X139862295Y-124665555D01*
X139940480Y-124821927D01*
X140018666Y-124900112D01*
X140175037Y-124978298D01*
X140487780Y-124978298D01*
X140644151Y-124900112D01*
X140722336Y-124821927D01*
X140800522Y-124665555D01*
X140800522Y-123336400D01*
X142286049Y-123883699D02*
X142286049Y-124978298D01*
X141895121Y-123258214D02*
X141504193Y-124430999D01*
X142520606Y-124430999D01*
D11*
%TO.C,R21*%
X153429480Y-121321457D02*
X152953290Y-121654790D01*
X153429480Y-121892885D02*
X152429480Y-121892885D01*
X152429480Y-121511933D01*
X152477100Y-121416695D01*
X152524719Y-121369076D01*
X152619957Y-121321457D01*
X152762814Y-121321457D01*
X152858052Y-121369076D01*
X152905671Y-121416695D01*
X152953290Y-121511933D01*
X152953290Y-121892885D01*
X152524719Y-120940504D02*
X152477100Y-120892885D01*
X152429480Y-120797647D01*
X152429480Y-120559552D01*
X152477100Y-120464314D01*
X152524719Y-120416695D01*
X152619957Y-120369076D01*
X152715195Y-120369076D01*
X152858052Y-120416695D01*
X153429480Y-120988123D01*
X153429480Y-120369076D01*
X153429480Y-119416695D02*
X153429480Y-119988123D01*
X153429480Y-119702409D02*
X152429480Y-119702409D01*
X152572338Y-119797647D01*
X152667576Y-119892885D01*
X152715195Y-119988123D01*
%TO.C,U3*%
X230592380Y-104901904D02*
X231401904Y-104901904D01*
X231497142Y-104854285D01*
X231544761Y-104806666D01*
X231592380Y-104711428D01*
X231592380Y-104520952D01*
X231544761Y-104425714D01*
X231497142Y-104378095D01*
X231401904Y-104330476D01*
X230592380Y-104330476D01*
X230592380Y-103949523D02*
X230592380Y-103330476D01*
X230973333Y-103663809D01*
X230973333Y-103520952D01*
X231020952Y-103425714D01*
X231068571Y-103378095D01*
X231163809Y-103330476D01*
X231401904Y-103330476D01*
X231497142Y-103378095D01*
X231544761Y-103425714D01*
X231592380Y-103520952D01*
X231592380Y-103806666D01*
X231544761Y-103901904D01*
X231497142Y-103949523D01*
%TO.C,R13*%
X227559880Y-112719857D02*
X227083690Y-113053190D01*
X227559880Y-113291285D02*
X226559880Y-113291285D01*
X226559880Y-112910333D01*
X226607500Y-112815095D01*
X226655119Y-112767476D01*
X226750357Y-112719857D01*
X226893214Y-112719857D01*
X226988452Y-112767476D01*
X227036071Y-112815095D01*
X227083690Y-112910333D01*
X227083690Y-113291285D01*
X227559880Y-111767476D02*
X227559880Y-112338904D01*
X227559880Y-112053190D02*
X226559880Y-112053190D01*
X226702738Y-112148428D01*
X226797976Y-112243666D01*
X226845595Y-112338904D01*
X226559880Y-111434142D02*
X226559880Y-110815095D01*
X226940833Y-111148428D01*
X226940833Y-111005571D01*
X226988452Y-110910333D01*
X227036071Y-110862714D01*
X227131309Y-110815095D01*
X227369404Y-110815095D01*
X227464642Y-110862714D01*
X227512261Y-110910333D01*
X227559880Y-111005571D01*
X227559880Y-111291285D01*
X227512261Y-111386523D01*
X227464642Y-111434142D01*
%TO.C,Q2*%
X136818619Y-97123238D02*
X136771000Y-97218476D01*
X136675761Y-97313714D01*
X136532904Y-97456571D01*
X136485285Y-97551809D01*
X136485285Y-97647047D01*
X136723380Y-97599428D02*
X136675761Y-97694666D01*
X136580523Y-97789904D01*
X136390047Y-97837523D01*
X136056714Y-97837523D01*
X135866238Y-97789904D01*
X135771000Y-97694666D01*
X135723380Y-97599428D01*
X135723380Y-97408952D01*
X135771000Y-97313714D01*
X135866238Y-97218476D01*
X136056714Y-97170857D01*
X136390047Y-97170857D01*
X136580523Y-97218476D01*
X136675761Y-97313714D01*
X136723380Y-97408952D01*
X136723380Y-97599428D01*
X135818619Y-96789904D02*
X135771000Y-96742285D01*
X135723380Y-96647047D01*
X135723380Y-96408952D01*
X135771000Y-96313714D01*
X135818619Y-96266095D01*
X135913857Y-96218476D01*
X136009095Y-96218476D01*
X136151952Y-96266095D01*
X136723380Y-96837523D01*
X136723380Y-96218476D01*
%TO.C,R11*%
X234132380Y-93734857D02*
X233656190Y-94068190D01*
X234132380Y-94306285D02*
X233132380Y-94306285D01*
X233132380Y-93925333D01*
X233180000Y-93830095D01*
X233227619Y-93782476D01*
X233322857Y-93734857D01*
X233465714Y-93734857D01*
X233560952Y-93782476D01*
X233608571Y-93830095D01*
X233656190Y-93925333D01*
X233656190Y-94306285D01*
X234132380Y-92782476D02*
X234132380Y-93353904D01*
X234132380Y-93068190D02*
X233132380Y-93068190D01*
X233275238Y-93163428D01*
X233370476Y-93258666D01*
X233418095Y-93353904D01*
X234132380Y-91830095D02*
X234132380Y-92401523D01*
X234132380Y-92115809D02*
X233132380Y-92115809D01*
X233275238Y-92211047D01*
X233370476Y-92306285D01*
X233418095Y-92401523D01*
%TO.C,H4*%
X168148095Y-127762380D02*
X168148095Y-126762380D01*
X168148095Y-127238571D02*
X168719523Y-127238571D01*
X168719523Y-127762380D02*
X168719523Y-126762380D01*
X169624285Y-127095714D02*
X169624285Y-127762380D01*
X169386190Y-126714761D02*
X169148095Y-127429047D01*
X169767142Y-127429047D01*
%TO.C,K1*%
X106957904Y-76652380D02*
X106957904Y-75652380D01*
X107529333Y-76652380D02*
X107100761Y-76080952D01*
X107529333Y-75652380D02*
X106957904Y-76223809D01*
X108481714Y-76652380D02*
X107910285Y-76652380D01*
X108196000Y-76652380D02*
X108196000Y-75652380D01*
X108100761Y-75795238D01*
X108005523Y-75890476D01*
X107910285Y-75938095D01*
%TO.C,R2*%
X138653780Y-109448467D02*
X138177590Y-109781801D01*
X138653780Y-110019896D02*
X137653780Y-110019896D01*
X137653780Y-109638943D01*
X137701400Y-109543705D01*
X137749019Y-109496086D01*
X137844257Y-109448467D01*
X137987114Y-109448467D01*
X138082352Y-109496086D01*
X138129971Y-109543705D01*
X138177590Y-109638943D01*
X138177590Y-110019896D01*
X137749019Y-109067515D02*
X137701400Y-109019896D01*
X137653780Y-108924658D01*
X137653780Y-108686562D01*
X137701400Y-108591324D01*
X137749019Y-108543705D01*
X137844257Y-108496086D01*
X137939495Y-108496086D01*
X138082352Y-108543705D01*
X138653780Y-109115134D01*
X138653780Y-108496086D01*
%TO.C,H2*%
X84328095Y-127762380D02*
X84328095Y-126762380D01*
X84328095Y-127238571D02*
X84899523Y-127238571D01*
X84899523Y-127762380D02*
X84899523Y-126762380D01*
X85328095Y-126857619D02*
X85375714Y-126810000D01*
X85470952Y-126762380D01*
X85709047Y-126762380D01*
X85804285Y-126810000D01*
X85851904Y-126857619D01*
X85899523Y-126952857D01*
X85899523Y-127048095D01*
X85851904Y-127190952D01*
X85280476Y-127762380D01*
X85899523Y-127762380D01*
%TO.C,D3*%
X122792380Y-89130095D02*
X121792380Y-89130095D01*
X121792380Y-88892000D01*
X121840000Y-88749142D01*
X121935238Y-88653904D01*
X122030476Y-88606285D01*
X122220952Y-88558666D01*
X122363809Y-88558666D01*
X122554285Y-88606285D01*
X122649523Y-88653904D01*
X122744761Y-88749142D01*
X122792380Y-88892000D01*
X122792380Y-89130095D01*
X121792380Y-88225333D02*
X121792380Y-87606285D01*
X122173333Y-87939619D01*
X122173333Y-87796761D01*
X122220952Y-87701523D01*
X122268571Y-87653904D01*
X122363809Y-87606285D01*
X122601904Y-87606285D01*
X122697142Y-87653904D01*
X122744761Y-87701523D01*
X122792380Y-87796761D01*
X122792380Y-88082476D01*
X122744761Y-88177714D01*
X122697142Y-88225333D01*
X123112380Y-92463904D02*
X122112380Y-92463904D01*
X123112380Y-91892476D02*
X122540952Y-92321047D01*
X122112380Y-91892476D02*
X122683809Y-92463904D01*
%TO.C,R12*%
X231592380Y-93734857D02*
X231116190Y-94068190D01*
X231592380Y-94306285D02*
X230592380Y-94306285D01*
X230592380Y-93925333D01*
X230640000Y-93830095D01*
X230687619Y-93782476D01*
X230782857Y-93734857D01*
X230925714Y-93734857D01*
X231020952Y-93782476D01*
X231068571Y-93830095D01*
X231116190Y-93925333D01*
X231116190Y-94306285D01*
X231592380Y-92782476D02*
X231592380Y-93353904D01*
X231592380Y-93068190D02*
X230592380Y-93068190D01*
X230735238Y-93163428D01*
X230830476Y-93258666D01*
X230878095Y-93353904D01*
X230687619Y-92401523D02*
X230640000Y-92353904D01*
X230592380Y-92258666D01*
X230592380Y-92020571D01*
X230640000Y-91925333D01*
X230687619Y-91877714D01*
X230782857Y-91830095D01*
X230878095Y-91830095D01*
X231020952Y-91877714D01*
X231592380Y-92449142D01*
X231592380Y-91830095D01*
%TO.C,SW3*%
X205786666Y-80272356D02*
X205929523Y-80319975D01*
X206167619Y-80319975D01*
X206262857Y-80272356D01*
X206310476Y-80224737D01*
X206358095Y-80129499D01*
X206358095Y-80034261D01*
X206310476Y-79939023D01*
X206262857Y-79891404D01*
X206167619Y-79843785D01*
X205977142Y-79796166D01*
X205881904Y-79748547D01*
X205834285Y-79700928D01*
X205786666Y-79605690D01*
X205786666Y-79510452D01*
X205834285Y-79415214D01*
X205881904Y-79367595D01*
X205977142Y-79319975D01*
X206215238Y-79319975D01*
X206358095Y-79367595D01*
X206691428Y-79319975D02*
X206929523Y-80319975D01*
X207120000Y-79605690D01*
X207310476Y-80319975D01*
X207548571Y-79319975D01*
X207834285Y-79319975D02*
X208453333Y-79319975D01*
X208120000Y-79700928D01*
X208262857Y-79700928D01*
X208358095Y-79748547D01*
X208405714Y-79796166D01*
X208453333Y-79891404D01*
X208453333Y-80129499D01*
X208405714Y-80224737D01*
X208358095Y-80272356D01*
X208262857Y-80319975D01*
X207977142Y-80319975D01*
X207881904Y-80272356D01*
X207834285Y-80224737D01*
%TO.C,J4*%
X159980380Y-114125333D02*
X160694666Y-114125333D01*
X160837523Y-114172952D01*
X160932761Y-114268190D01*
X160980380Y-114411047D01*
X160980380Y-114506285D01*
X160313714Y-113220571D02*
X160980380Y-113220571D01*
X159932761Y-113458666D02*
X160647047Y-113696761D01*
X160647047Y-113077714D01*
%TO.C,H5*%
X180848095Y-70612380D02*
X180848095Y-69612380D01*
X180848095Y-70088571D02*
X181419523Y-70088571D01*
X181419523Y-70612380D02*
X181419523Y-69612380D01*
X182371904Y-69612380D02*
X181895714Y-69612380D01*
X181848095Y-70088571D01*
X181895714Y-70040952D01*
X181990952Y-69993333D01*
X182229047Y-69993333D01*
X182324285Y-70040952D01*
X182371904Y-70088571D01*
X182419523Y-70183809D01*
X182419523Y-70421904D01*
X182371904Y-70517142D01*
X182324285Y-70564761D01*
X182229047Y-70612380D01*
X181990952Y-70612380D01*
X181895714Y-70564761D01*
X181848095Y-70517142D01*
%TO.C,Q1*%
X125952261Y-78017619D02*
X125857023Y-77970000D01*
X125761785Y-77874761D01*
X125618928Y-77731904D01*
X125523690Y-77684285D01*
X125428452Y-77684285D01*
X125476071Y-77922380D02*
X125380833Y-77874761D01*
X125285595Y-77779523D01*
X125237976Y-77589047D01*
X125237976Y-77255714D01*
X125285595Y-77065238D01*
X125380833Y-76970000D01*
X125476071Y-76922380D01*
X125666547Y-76922380D01*
X125761785Y-76970000D01*
X125857023Y-77065238D01*
X125904642Y-77255714D01*
X125904642Y-77589047D01*
X125857023Y-77779523D01*
X125761785Y-77874761D01*
X125666547Y-77922380D01*
X125476071Y-77922380D01*
X126857023Y-77922380D02*
X126285595Y-77922380D01*
X126571309Y-77922380D02*
X126571309Y-76922380D01*
X126476071Y-77065238D01*
X126380833Y-77160476D01*
X126285595Y-77208095D01*
%TO.C,C2*%
X138619133Y-106860943D02*
X138571514Y-106908562D01*
X138428657Y-106956181D01*
X138333419Y-106956181D01*
X138190561Y-106908562D01*
X138095323Y-106813324D01*
X138047704Y-106718086D01*
X138000085Y-106527610D01*
X138000085Y-106384753D01*
X138047704Y-106194277D01*
X138095323Y-106099039D01*
X138190561Y-106003801D01*
X138333419Y-105956181D01*
X138428657Y-105956181D01*
X138571514Y-106003801D01*
X138619133Y-106051420D01*
X139000085Y-106051420D02*
X139047704Y-106003801D01*
X139142942Y-105956181D01*
X139381038Y-105956181D01*
X139476276Y-106003801D01*
X139523895Y-106051420D01*
X139571514Y-106146658D01*
X139571514Y-106241896D01*
X139523895Y-106384753D01*
X138952466Y-106956181D01*
X139571514Y-106956181D01*
%TO.C,R16*%
X128897142Y-77922380D02*
X128563809Y-77446190D01*
X128325714Y-77922380D02*
X128325714Y-76922380D01*
X128706666Y-76922380D01*
X128801904Y-76970000D01*
X128849523Y-77017619D01*
X128897142Y-77112857D01*
X128897142Y-77255714D01*
X128849523Y-77350952D01*
X128801904Y-77398571D01*
X128706666Y-77446190D01*
X128325714Y-77446190D01*
X129849523Y-77922380D02*
X129278095Y-77922380D01*
X129563809Y-77922380D02*
X129563809Y-76922380D01*
X129468571Y-77065238D01*
X129373333Y-77160476D01*
X129278095Y-77208095D01*
X130706666Y-76922380D02*
X130516190Y-76922380D01*
X130420952Y-76970000D01*
X130373333Y-77017619D01*
X130278095Y-77160476D01*
X130230476Y-77350952D01*
X130230476Y-77731904D01*
X130278095Y-77827142D01*
X130325714Y-77874761D01*
X130420952Y-77922380D01*
X130611428Y-77922380D01*
X130706666Y-77874761D01*
X130754285Y-77827142D01*
X130801904Y-77731904D01*
X130801904Y-77493809D01*
X130754285Y-77398571D01*
X130706666Y-77350952D01*
X130611428Y-77303333D01*
X130420952Y-77303333D01*
X130325714Y-77350952D01*
X130278095Y-77398571D01*
X130230476Y-77493809D01*
%TO.C,R3*%
X142692380Y-96686666D02*
X142216190Y-97020000D01*
X142692380Y-97258095D02*
X141692380Y-97258095D01*
X141692380Y-96877142D01*
X141740000Y-96781904D01*
X141787619Y-96734285D01*
X141882857Y-96686666D01*
X142025714Y-96686666D01*
X142120952Y-96734285D01*
X142168571Y-96781904D01*
X142216190Y-96877142D01*
X142216190Y-97258095D01*
X141692380Y-96353333D02*
X141692380Y-95734285D01*
X142073333Y-96067619D01*
X142073333Y-95924761D01*
X142120952Y-95829523D01*
X142168571Y-95781904D01*
X142263809Y-95734285D01*
X142501904Y-95734285D01*
X142597142Y-95781904D01*
X142644761Y-95829523D01*
X142692380Y-95924761D01*
X142692380Y-96210476D01*
X142644761Y-96305714D01*
X142597142Y-96353333D01*
%TO.C,R9*%
X226512380Y-93766666D02*
X226036190Y-94100000D01*
X226512380Y-94338095D02*
X225512380Y-94338095D01*
X225512380Y-93957142D01*
X225560000Y-93861904D01*
X225607619Y-93814285D01*
X225702857Y-93766666D01*
X225845714Y-93766666D01*
X225940952Y-93814285D01*
X225988571Y-93861904D01*
X226036190Y-93957142D01*
X226036190Y-94338095D01*
X226512380Y-93290476D02*
X226512380Y-93100000D01*
X226464761Y-93004761D01*
X226417142Y-92957142D01*
X226274285Y-92861904D01*
X226083809Y-92814285D01*
X225702857Y-92814285D01*
X225607619Y-92861904D01*
X225560000Y-92909523D01*
X225512380Y-93004761D01*
X225512380Y-93195238D01*
X225560000Y-93290476D01*
X225607619Y-93338095D01*
X225702857Y-93385714D01*
X225940952Y-93385714D01*
X226036190Y-93338095D01*
X226083809Y-93290476D01*
X226131428Y-93195238D01*
X226131428Y-93004761D01*
X226083809Y-92909523D01*
X226036190Y-92861904D01*
X225940952Y-92814285D01*
%TO.C,H8*%
X235458095Y-127889380D02*
X235458095Y-126889380D01*
X235458095Y-127365571D02*
X236029523Y-127365571D01*
X236029523Y-127889380D02*
X236029523Y-126889380D01*
X236648571Y-127317952D02*
X236553333Y-127270333D01*
X236505714Y-127222714D01*
X236458095Y-127127476D01*
X236458095Y-127079857D01*
X236505714Y-126984619D01*
X236553333Y-126937000D01*
X236648571Y-126889380D01*
X236839047Y-126889380D01*
X236934285Y-126937000D01*
X236981904Y-126984619D01*
X237029523Y-127079857D01*
X237029523Y-127127476D01*
X236981904Y-127222714D01*
X236934285Y-127270333D01*
X236839047Y-127317952D01*
X236648571Y-127317952D01*
X236553333Y-127365571D01*
X236505714Y-127413190D01*
X236458095Y-127508428D01*
X236458095Y-127698904D01*
X236505714Y-127794142D01*
X236553333Y-127841761D01*
X236648571Y-127889380D01*
X236839047Y-127889380D01*
X236934285Y-127841761D01*
X236981904Y-127794142D01*
X237029523Y-127698904D01*
X237029523Y-127508428D01*
X236981904Y-127413190D01*
X236934285Y-127365571D01*
X236839047Y-127317952D01*
%TO.C,R7*%
X232639880Y-112243666D02*
X232163690Y-112577000D01*
X232639880Y-112815095D02*
X231639880Y-112815095D01*
X231639880Y-112434142D01*
X231687500Y-112338904D01*
X231735119Y-112291285D01*
X231830357Y-112243666D01*
X231973214Y-112243666D01*
X232068452Y-112291285D01*
X232116071Y-112338904D01*
X232163690Y-112434142D01*
X232163690Y-112815095D01*
X231639880Y-111910333D02*
X231639880Y-111243666D01*
X232639880Y-111672238D01*
%TO.C,C19*%
X131861842Y-116677542D02*
X131814223Y-116725161D01*
X131671366Y-116772780D01*
X131576128Y-116772780D01*
X131433271Y-116725161D01*
X131338033Y-116629923D01*
X131290414Y-116534685D01*
X131242795Y-116344209D01*
X131242795Y-116201352D01*
X131290414Y-116010876D01*
X131338033Y-115915638D01*
X131433271Y-115820400D01*
X131576128Y-115772780D01*
X131671366Y-115772780D01*
X131814223Y-115820400D01*
X131861842Y-115868019D01*
X132814223Y-116772780D02*
X132242795Y-116772780D01*
X132528509Y-116772780D02*
X132528509Y-115772780D01*
X132433271Y-115915638D01*
X132338033Y-116010876D01*
X132242795Y-116058495D01*
X133290414Y-116772780D02*
X133480890Y-116772780D01*
X133576128Y-116725161D01*
X133623747Y-116677542D01*
X133718985Y-116534685D01*
X133766604Y-116344209D01*
X133766604Y-115963257D01*
X133718985Y-115868019D01*
X133671366Y-115820400D01*
X133576128Y-115772780D01*
X133385652Y-115772780D01*
X133290414Y-115820400D01*
X133242795Y-115868019D01*
X133195176Y-115963257D01*
X133195176Y-116201352D01*
X133242795Y-116296590D01*
X133290414Y-116344209D01*
X133385652Y-116391828D01*
X133576128Y-116391828D01*
X133671366Y-116344209D01*
X133718985Y-116296590D01*
X133766604Y-116201352D01*
%TO.C,H10*%
X110521904Y-127762380D02*
X110521904Y-126762380D01*
X110521904Y-127238571D02*
X111093333Y-127238571D01*
X111093333Y-127762380D02*
X111093333Y-126762380D01*
X112093333Y-127762380D02*
X111521904Y-127762380D01*
X111807619Y-127762380D02*
X111807619Y-126762380D01*
X111712380Y-126905238D01*
X111617142Y-127000476D01*
X111521904Y-127048095D01*
X112712380Y-126762380D02*
X112807619Y-126762380D01*
X112902857Y-126810000D01*
X112950476Y-126857619D01*
X112998095Y-126952857D01*
X113045714Y-127143333D01*
X113045714Y-127381428D01*
X112998095Y-127571904D01*
X112950476Y-127667142D01*
X112902857Y-127714761D01*
X112807619Y-127762380D01*
X112712380Y-127762380D01*
X112617142Y-127714761D01*
X112569523Y-127667142D01*
X112521904Y-127571904D01*
X112474285Y-127381428D01*
X112474285Y-127143333D01*
X112521904Y-126952857D01*
X112569523Y-126857619D01*
X112617142Y-126810000D01*
X112712380Y-126762380D01*
%TO.C,H6*%
X180848095Y-127762380D02*
X180848095Y-126762380D01*
X180848095Y-127238571D02*
X181419523Y-127238571D01*
X181419523Y-127762380D02*
X181419523Y-126762380D01*
X182324285Y-126762380D02*
X182133809Y-126762380D01*
X182038571Y-126810000D01*
X181990952Y-126857619D01*
X181895714Y-127000476D01*
X181848095Y-127190952D01*
X181848095Y-127571904D01*
X181895714Y-127667142D01*
X181943333Y-127714761D01*
X182038571Y-127762380D01*
X182229047Y-127762380D01*
X182324285Y-127714761D01*
X182371904Y-127667142D01*
X182419523Y-127571904D01*
X182419523Y-127333809D01*
X182371904Y-127238571D01*
X182324285Y-127190952D01*
X182229047Y-127143333D01*
X182038571Y-127143333D01*
X181943333Y-127190952D01*
X181895714Y-127238571D01*
X181848095Y-127333809D01*
%TO.C,R4*%
X101433333Y-98559380D02*
X101100000Y-98083190D01*
X100861904Y-98559380D02*
X100861904Y-97559380D01*
X101242857Y-97559380D01*
X101338095Y-97607000D01*
X101385714Y-97654619D01*
X101433333Y-97749857D01*
X101433333Y-97892714D01*
X101385714Y-97987952D01*
X101338095Y-98035571D01*
X101242857Y-98083190D01*
X100861904Y-98083190D01*
X102290476Y-97892714D02*
X102290476Y-98559380D01*
X102052380Y-97511761D02*
X101814285Y-98226047D01*
X102433333Y-98226047D01*
%TO.C,D1*%
X149111804Y-126668780D02*
X149111804Y-125668780D01*
X149349900Y-125668780D01*
X149492757Y-125716400D01*
X149587995Y-125811638D01*
X149635614Y-125906876D01*
X149683233Y-126097352D01*
X149683233Y-126240209D01*
X149635614Y-126430685D01*
X149587995Y-126525923D01*
X149492757Y-126621161D01*
X149349900Y-126668780D01*
X149111804Y-126668780D01*
X150635614Y-126668780D02*
X150064185Y-126668780D01*
X150349900Y-126668780D02*
X150349900Y-125668780D01*
X150254661Y-125811638D01*
X150159423Y-125906876D01*
X150064185Y-125954495D01*
%TO.C,C5*%
X195777142Y-101129261D02*
X195824761Y-101176880D01*
X195872380Y-101319737D01*
X195872380Y-101414975D01*
X195824761Y-101557833D01*
X195729523Y-101653071D01*
X195634285Y-101700690D01*
X195443809Y-101748309D01*
X195300952Y-101748309D01*
X195110476Y-101700690D01*
X195015238Y-101653071D01*
X194920000Y-101557833D01*
X194872380Y-101414975D01*
X194872380Y-101319737D01*
X194920000Y-101176880D01*
X194967619Y-101129261D01*
X194872380Y-100224499D02*
X194872380Y-100700690D01*
X195348571Y-100748309D01*
X195300952Y-100700690D01*
X195253333Y-100605452D01*
X195253333Y-100367356D01*
X195300952Y-100272118D01*
X195348571Y-100224499D01*
X195443809Y-100176880D01*
X195681904Y-100176880D01*
X195777142Y-100224499D01*
X195824761Y-100272118D01*
X195872380Y-100367356D01*
X195872380Y-100605452D01*
X195824761Y-100700690D01*
X195777142Y-100748309D01*
%TO.C,SW2*%
X205786666Y-103132356D02*
X205929523Y-103179975D01*
X206167619Y-103179975D01*
X206262857Y-103132356D01*
X206310476Y-103084737D01*
X206358095Y-102989499D01*
X206358095Y-102894261D01*
X206310476Y-102799023D01*
X206262857Y-102751404D01*
X206167619Y-102703785D01*
X205977142Y-102656166D01*
X205881904Y-102608547D01*
X205834285Y-102560928D01*
X205786666Y-102465690D01*
X205786666Y-102370452D01*
X205834285Y-102275214D01*
X205881904Y-102227595D01*
X205977142Y-102179975D01*
X206215238Y-102179975D01*
X206358095Y-102227595D01*
X206691428Y-102179975D02*
X206929523Y-103179975D01*
X207120000Y-102465690D01*
X207310476Y-103179975D01*
X207548571Y-102179975D01*
X207881904Y-102275214D02*
X207929523Y-102227595D01*
X208024761Y-102179975D01*
X208262857Y-102179975D01*
X208358095Y-102227595D01*
X208405714Y-102275214D01*
X208453333Y-102370452D01*
X208453333Y-102465690D01*
X208405714Y-102608547D01*
X207834285Y-103179975D01*
X208453333Y-103179975D01*
%TO.C,H7*%
X235458095Y-70556380D02*
X235458095Y-69556380D01*
X235458095Y-70032571D02*
X236029523Y-70032571D01*
X236029523Y-70556380D02*
X236029523Y-69556380D01*
X236410476Y-69556380D02*
X237077142Y-69556380D01*
X236648571Y-70556380D01*
%TO.C,H1*%
X84328095Y-70612380D02*
X84328095Y-69612380D01*
X84328095Y-70088571D02*
X84899523Y-70088571D01*
X84899523Y-70612380D02*
X84899523Y-69612380D01*
X85899523Y-70612380D02*
X85328095Y-70612380D01*
X85613809Y-70612380D02*
X85613809Y-69612380D01*
X85518571Y-69755238D01*
X85423333Y-69850476D01*
X85328095Y-69898095D01*
%TO.C,C17*%
X150184642Y-121483057D02*
X150232261Y-121530676D01*
X150279880Y-121673533D01*
X150279880Y-121768771D01*
X150232261Y-121911628D01*
X150137023Y-122006866D01*
X150041785Y-122054485D01*
X149851309Y-122102104D01*
X149708452Y-122102104D01*
X149517976Y-122054485D01*
X149422738Y-122006866D01*
X149327500Y-121911628D01*
X149279880Y-121768771D01*
X149279880Y-121673533D01*
X149327500Y-121530676D01*
X149375119Y-121483057D01*
X150279880Y-120530676D02*
X150279880Y-121102104D01*
X150279880Y-120816390D02*
X149279880Y-120816390D01*
X149422738Y-120911628D01*
X149517976Y-121006866D01*
X149565595Y-121102104D01*
X149279880Y-120197342D02*
X149279880Y-119530676D01*
X150279880Y-119959247D01*
%TO.C,J1*%
X83867666Y-93813380D02*
X83867666Y-94527666D01*
X83820047Y-94670523D01*
X83724809Y-94765761D01*
X83581952Y-94813380D01*
X83486714Y-94813380D01*
X84867666Y-94813380D02*
X84296238Y-94813380D01*
X84581952Y-94813380D02*
X84581952Y-93813380D01*
X84486714Y-93956238D01*
X84391476Y-94051476D01*
X84296238Y-94099095D01*
%TO.C,D4*%
X107211904Y-122689980D02*
X107211904Y-121689980D01*
X107450000Y-121689980D01*
X107592857Y-121737600D01*
X107688095Y-121832838D01*
X107735714Y-121928076D01*
X107783333Y-122118552D01*
X107783333Y-122261409D01*
X107735714Y-122451885D01*
X107688095Y-122547123D01*
X107592857Y-122642361D01*
X107450000Y-122689980D01*
X107211904Y-122689980D01*
X108640476Y-122023314D02*
X108640476Y-122689980D01*
X108402380Y-121642361D02*
X108164285Y-122356647D01*
X108783333Y-122356647D01*
%TO.C,R8*%
X230099880Y-112243666D02*
X229623690Y-112577000D01*
X230099880Y-112815095D02*
X229099880Y-112815095D01*
X229099880Y-112434142D01*
X229147500Y-112338904D01*
X229195119Y-112291285D01*
X229290357Y-112243666D01*
X229433214Y-112243666D01*
X229528452Y-112291285D01*
X229576071Y-112338904D01*
X229623690Y-112434142D01*
X229623690Y-112815095D01*
X229528452Y-111672238D02*
X229480833Y-111767476D01*
X229433214Y-111815095D01*
X229337976Y-111862714D01*
X229290357Y-111862714D01*
X229195119Y-111815095D01*
X229147500Y-111767476D01*
X229099880Y-111672238D01*
X229099880Y-111481761D01*
X229147500Y-111386523D01*
X229195119Y-111338904D01*
X229290357Y-111291285D01*
X229337976Y-111291285D01*
X229433214Y-111338904D01*
X229480833Y-111386523D01*
X229528452Y-111481761D01*
X229528452Y-111672238D01*
X229576071Y-111767476D01*
X229623690Y-111815095D01*
X229718928Y-111862714D01*
X229909404Y-111862714D01*
X230004642Y-111815095D01*
X230052261Y-111767476D01*
X230099880Y-111672238D01*
X230099880Y-111481761D01*
X230052261Y-111386523D01*
X230004642Y-111338904D01*
X229909404Y-111291285D01*
X229718928Y-111291285D01*
X229623690Y-111338904D01*
X229576071Y-111386523D01*
X229528452Y-111481761D01*
%TO.C,R1*%
X144423333Y-102085380D02*
X144090000Y-101609190D01*
X143851904Y-102085380D02*
X143851904Y-101085380D01*
X144232857Y-101085380D01*
X144328095Y-101133000D01*
X144375714Y-101180619D01*
X144423333Y-101275857D01*
X144423333Y-101418714D01*
X144375714Y-101513952D01*
X144328095Y-101561571D01*
X144232857Y-101609190D01*
X143851904Y-101609190D01*
X145375714Y-102085380D02*
X144804285Y-102085380D01*
X145090000Y-102085380D02*
X145090000Y-101085380D01*
X144994761Y-101228238D01*
X144899523Y-101323476D01*
X144804285Y-101371095D01*
%TO.C,R22*%
X152994642Y-118693180D02*
X152661309Y-118216990D01*
X152423214Y-118693180D02*
X152423214Y-117693180D01*
X152804166Y-117693180D01*
X152899404Y-117740800D01*
X152947023Y-117788419D01*
X152994642Y-117883657D01*
X152994642Y-118026514D01*
X152947023Y-118121752D01*
X152899404Y-118169371D01*
X152804166Y-118216990D01*
X152423214Y-118216990D01*
X153375595Y-117788419D02*
X153423214Y-117740800D01*
X153518452Y-117693180D01*
X153756547Y-117693180D01*
X153851785Y-117740800D01*
X153899404Y-117788419D01*
X153947023Y-117883657D01*
X153947023Y-117978895D01*
X153899404Y-118121752D01*
X153327976Y-118693180D01*
X153947023Y-118693180D01*
X154327976Y-117788419D02*
X154375595Y-117740800D01*
X154470833Y-117693180D01*
X154708928Y-117693180D01*
X154804166Y-117740800D01*
X154851785Y-117788419D01*
X154899404Y-117883657D01*
X154899404Y-117978895D01*
X154851785Y-118121752D01*
X154280357Y-118693180D01*
X154899404Y-118693180D01*
%TO.C,C3*%
X138609342Y-107385268D02*
X138656961Y-107432887D01*
X138704580Y-107575744D01*
X138704580Y-107670982D01*
X138656961Y-107813840D01*
X138561723Y-107909078D01*
X138466485Y-107956697D01*
X138276009Y-108004316D01*
X138133152Y-108004316D01*
X137942676Y-107956697D01*
X137847438Y-107909078D01*
X137752200Y-107813840D01*
X137704580Y-107670982D01*
X137704580Y-107575744D01*
X137752200Y-107432887D01*
X137799819Y-107385268D01*
X137704580Y-107051935D02*
X137704580Y-106432887D01*
X138085533Y-106766221D01*
X138085533Y-106623363D01*
X138133152Y-106528125D01*
X138180771Y-106480506D01*
X138276009Y-106432887D01*
X138514104Y-106432887D01*
X138609342Y-106480506D01*
X138656961Y-106528125D01*
X138704580Y-106623363D01*
X138704580Y-106909078D01*
X138656961Y-107004316D01*
X138609342Y-107051935D01*
%TO.C,R14*%
X131262380Y-92082857D02*
X130786190Y-92416190D01*
X131262380Y-92654285D02*
X130262380Y-92654285D01*
X130262380Y-92273333D01*
X130310000Y-92178095D01*
X130357619Y-92130476D01*
X130452857Y-92082857D01*
X130595714Y-92082857D01*
X130690952Y-92130476D01*
X130738571Y-92178095D01*
X130786190Y-92273333D01*
X130786190Y-92654285D01*
X131262380Y-91130476D02*
X131262380Y-91701904D01*
X131262380Y-91416190D02*
X130262380Y-91416190D01*
X130405238Y-91511428D01*
X130500476Y-91606666D01*
X130548095Y-91701904D01*
X130595714Y-90273333D02*
X131262380Y-90273333D01*
X130214761Y-90511428D02*
X130929047Y-90749523D01*
X130929047Y-90130476D01*
%TO.C,C4*%
X195777142Y-123989261D02*
X195824761Y-124036880D01*
X195872380Y-124179737D01*
X195872380Y-124274975D01*
X195824761Y-124417833D01*
X195729523Y-124513071D01*
X195634285Y-124560690D01*
X195443809Y-124608309D01*
X195300952Y-124608309D01*
X195110476Y-124560690D01*
X195015238Y-124513071D01*
X194920000Y-124417833D01*
X194872380Y-124274975D01*
X194872380Y-124179737D01*
X194920000Y-124036880D01*
X194967619Y-123989261D01*
X195205714Y-123132118D02*
X195872380Y-123132118D01*
X194824761Y-123370214D02*
X195539047Y-123608309D01*
X195539047Y-122989261D01*
%TO.C,SW1*%
X205786666Y-125992356D02*
X205929523Y-126039975D01*
X206167619Y-126039975D01*
X206262857Y-125992356D01*
X206310476Y-125944737D01*
X206358095Y-125849499D01*
X206358095Y-125754261D01*
X206310476Y-125659023D01*
X206262857Y-125611404D01*
X206167619Y-125563785D01*
X205977142Y-125516166D01*
X205881904Y-125468547D01*
X205834285Y-125420928D01*
X205786666Y-125325690D01*
X205786666Y-125230452D01*
X205834285Y-125135214D01*
X205881904Y-125087595D01*
X205977142Y-125039975D01*
X206215238Y-125039975D01*
X206358095Y-125087595D01*
X206691428Y-125039975D02*
X206929523Y-126039975D01*
X207120000Y-125325690D01*
X207310476Y-126039975D01*
X207548571Y-125039975D01*
X208453333Y-126039975D02*
X207881904Y-126039975D01*
X208167619Y-126039975D02*
X208167619Y-125039975D01*
X208072380Y-125182833D01*
X207977142Y-125278071D01*
X207881904Y-125325690D01*
%TO.C,R18*%
X136745742Y-113736380D02*
X136412409Y-113260190D01*
X136174314Y-113736380D02*
X136174314Y-112736380D01*
X136555266Y-112736380D01*
X136650504Y-112784000D01*
X136698123Y-112831619D01*
X136745742Y-112926857D01*
X136745742Y-113069714D01*
X136698123Y-113164952D01*
X136650504Y-113212571D01*
X136555266Y-113260190D01*
X136174314Y-113260190D01*
X137698123Y-113736380D02*
X137126695Y-113736380D01*
X137412409Y-113736380D02*
X137412409Y-112736380D01*
X137317171Y-112879238D01*
X137221933Y-112974476D01*
X137126695Y-113022095D01*
X138269552Y-113164952D02*
X138174314Y-113117333D01*
X138126695Y-113069714D01*
X138079076Y-112974476D01*
X138079076Y-112926857D01*
X138126695Y-112831619D01*
X138174314Y-112784000D01*
X138269552Y-112736380D01*
X138460028Y-112736380D01*
X138555266Y-112784000D01*
X138602885Y-112831619D01*
X138650504Y-112926857D01*
X138650504Y-112974476D01*
X138602885Y-113069714D01*
X138555266Y-113117333D01*
X138460028Y-113164952D01*
X138269552Y-113164952D01*
X138174314Y-113212571D01*
X138126695Y-113260190D01*
X138079076Y-113355428D01*
X138079076Y-113545904D01*
X138126695Y-113641142D01*
X138174314Y-113688761D01*
X138269552Y-113736380D01*
X138460028Y-113736380D01*
X138555266Y-113688761D01*
X138602885Y-113641142D01*
X138650504Y-113545904D01*
X138650504Y-113355428D01*
X138602885Y-113260190D01*
X138555266Y-113212571D01*
X138460028Y-113164952D01*
%TO.C,H3*%
X168148095Y-70612380D02*
X168148095Y-69612380D01*
X168148095Y-70088571D02*
X168719523Y-70088571D01*
X168719523Y-70612380D02*
X168719523Y-69612380D01*
X169100476Y-69612380D02*
X169719523Y-69612380D01*
X169386190Y-69993333D01*
X169529047Y-69993333D01*
X169624285Y-70040952D01*
X169671904Y-70088571D01*
X169719523Y-70183809D01*
X169719523Y-70421904D01*
X169671904Y-70517142D01*
X169624285Y-70564761D01*
X169529047Y-70612380D01*
X169243333Y-70612380D01*
X169148095Y-70564761D01*
X169100476Y-70517142D01*
%TO.C,J3*%
X161885380Y-93170333D02*
X162599666Y-93170333D01*
X162742523Y-93217952D01*
X162837761Y-93313190D01*
X162885380Y-93456047D01*
X162885380Y-93551285D01*
X161885380Y-92789380D02*
X161885380Y-92170333D01*
X162266333Y-92503666D01*
X162266333Y-92360809D01*
X162313952Y-92265571D01*
X162361571Y-92217952D01*
X162456809Y-92170333D01*
X162694904Y-92170333D01*
X162790142Y-92217952D01*
X162837761Y-92265571D01*
X162885380Y-92360809D01*
X162885380Y-92646523D01*
X162837761Y-92741761D01*
X162790142Y-92789380D01*
D13*
%TO.C,R6*%
X236680000Y-112314258D02*
X236680000Y-111839742D01*
X235635000Y-112314258D02*
X235635000Y-111839742D01*
%TO.C,C1*%
X134425563Y-102160000D02*
X133140000Y-102160000D01*
X128670000Y-103224437D02*
X128670000Y-108980000D01*
X129734437Y-102160000D02*
X128670000Y-103224437D01*
X135490000Y-103224437D02*
X135490000Y-108980000D01*
X134321250Y-101526250D02*
X133533750Y-101526250D01*
X133927500Y-101132500D02*
X133927500Y-101920000D01*
X128670000Y-108980000D02*
X131020000Y-108980000D01*
X135490000Y-108980000D02*
X133140000Y-108980000D01*
X134425563Y-102160000D02*
X135490000Y-103224437D01*
X129734437Y-102160000D02*
X131020000Y-102160000D01*
%TO.C,R17*%
X140610858Y-110729500D02*
X140136342Y-110729500D01*
X140610858Y-111774500D02*
X140136342Y-111774500D01*
D14*
%TO.C,mouse-bite-2.54mm-slot*%
X176530000Y-103378000D02*
G75*
G03*
X173990000Y-103378000I-1270000J0D01*
G01*
X173990000Y-98298000D02*
G75*
G03*
X176530000Y-98298000I1270000J0D01*
G01*
D15*
%TO.C,LS1*%
X159551500Y-82773000D02*
X158551500Y-82773000D01*
X133211500Y-82773000D02*
X132211500Y-82773000D01*
X159051500Y-83273000D02*
X159051500Y-82273000D01*
X157881500Y-82773000D02*
G75*
G03*
X157881500Y-82773000I-12000000J0D01*
G01*
D13*
%TO.C,R10*%
X229060000Y-95965742D02*
X229060000Y-96440258D01*
X228015000Y-95965742D02*
X228015000Y-96440258D01*
%TO.C,J6*%
X89707500Y-113427600D02*
X77487500Y-113427600D01*
X80787500Y-113427600D02*
X80787500Y-125647600D01*
X90507500Y-117337600D02*
X89907500Y-117037600D01*
X78987500Y-116287600D02*
X77487500Y-116037600D01*
X77487500Y-123037600D02*
X78987500Y-122787600D01*
X78987500Y-113427600D02*
X80787500Y-113427600D01*
X77487500Y-125647600D02*
X89707500Y-125647600D01*
X89707500Y-125647600D02*
X89707500Y-113427600D01*
X78987500Y-121287600D02*
X77487500Y-121037600D01*
X77487500Y-121037600D02*
X77487500Y-123037600D01*
X77487500Y-113427600D02*
X77487500Y-125647600D01*
X78987500Y-117787600D02*
X78987500Y-116287600D01*
X78987500Y-122787600D02*
X78987500Y-121287600D01*
X90507500Y-116737600D02*
X90507500Y-117337600D01*
X80787500Y-125647600D02*
X78987500Y-125647600D01*
X77487500Y-118037600D02*
X78987500Y-117787600D01*
X89907500Y-117037600D02*
X90507500Y-116737600D01*
X77487500Y-116037600D02*
X77487500Y-118037600D01*
X78987500Y-125647600D02*
X78987500Y-113427600D01*
%TO.C,D2*%
X128252600Y-83697000D02*
X128252600Y-87582000D01*
X130522600Y-87582000D02*
X130522600Y-83697000D01*
X130522600Y-83697000D02*
X128252600Y-83697000D01*
%TO.C,C15*%
X145762300Y-124582037D02*
X145762300Y-125867600D01*
X146789800Y-128775100D02*
X146002300Y-128775100D01*
X145762300Y-129273163D02*
X145762300Y-127987600D01*
X138942300Y-130337600D02*
X138942300Y-127987600D01*
X146396050Y-129168850D02*
X146396050Y-128381350D01*
X145762300Y-129273163D02*
X144697863Y-130337600D01*
X145762300Y-124582037D02*
X144697863Y-123517600D01*
X144697863Y-123517600D02*
X138942300Y-123517600D01*
X138942300Y-123517600D02*
X138942300Y-125867600D01*
X144697863Y-130337600D02*
X138942300Y-130337600D01*
%TO.C,R20*%
X151874000Y-124201142D02*
X151874000Y-124675658D01*
X150829000Y-124201142D02*
X150829000Y-124675658D01*
%TO.C,R15*%
X140610858Y-100061500D02*
X140136342Y-100061500D01*
X140610858Y-101106500D02*
X140136342Y-101106500D01*
%TO.C,F1*%
X97388000Y-120035536D02*
X97388000Y-121239664D01*
X99208000Y-120035536D02*
X99208000Y-121239664D01*
%TO.C,C18*%
X137158000Y-120954220D02*
X137158000Y-121235380D01*
X138178000Y-120954220D02*
X138178000Y-121235380D01*
%TO.C,C16*%
X117624437Y-118077600D02*
X120410000Y-118077600D01*
X127280000Y-119142037D02*
X127280000Y-128797600D01*
X116560000Y-119142037D02*
X116560000Y-128797600D01*
X127280000Y-128797600D02*
X123430000Y-128797600D01*
X126215563Y-118077600D02*
X127280000Y-119142037D01*
X116560000Y-128797600D02*
X120410000Y-128797600D01*
X117624437Y-118077600D02*
X116560000Y-119142037D01*
X126215563Y-118077600D02*
X123430000Y-118077600D01*
X124680000Y-116587600D02*
X124680000Y-117837600D01*
X125305000Y-117212600D02*
X124055000Y-117212600D01*
%TO.C,R19*%
X140610858Y-114975100D02*
X140136342Y-114975100D01*
X140610858Y-116020100D02*
X140136342Y-116020100D01*
D15*
%TO.C,U1*%
X146086000Y-102605000D02*
X150586000Y-102605000D01*
X146086000Y-109485000D02*
X150586000Y-109485000D01*
D16*
X144096000Y-102730000D02*
G75*
G03*
X144096000Y-102730000I-100000J0D01*
G01*
D13*
%TO.C,R5*%
X140148542Y-102347500D02*
X140623058Y-102347500D01*
X140148542Y-103392500D02*
X140623058Y-103392500D01*
%TO.C,C6*%
X197360000Y-78243175D02*
X197360000Y-77962015D01*
X196340000Y-78243175D02*
X196340000Y-77962015D01*
%TO.C,U2*%
X102818000Y-105397000D02*
X105203000Y-105397000D01*
X105203000Y-108217000D02*
X105203000Y-107977000D01*
X105203000Y-105397000D02*
X105203000Y-105637000D01*
X100433000Y-105637000D02*
X98768000Y-105637000D01*
X102818000Y-108217000D02*
X105203000Y-108217000D01*
X102818000Y-108217000D02*
X100433000Y-108217000D01*
X102818000Y-105397000D02*
X100433000Y-105397000D01*
X100433000Y-108217000D02*
X100433000Y-107977000D01*
X100433000Y-105397000D02*
X100433000Y-105637000D01*
D17*
%TO.C,U4*%
X143172700Y-122199400D02*
X144417300Y-122199400D01*
X141318500Y-122199400D02*
X142563100Y-122199400D01*
X142563100Y-122199400D02*
X143172700Y-122199400D01*
X144417300Y-119100600D02*
X141318500Y-119100600D01*
X142740900Y-121920000D02*
G75*
G03*
X142563100Y-122199400I139073J-284774D01*
G01*
X143172701Y-122199400D02*
G75*
G03*
X142994899Y-121920000I-316881J-5380D01*
G01*
D13*
%TO.C,R21*%
X150829000Y-121027458D02*
X150829000Y-120552942D01*
X151874000Y-121027458D02*
X151874000Y-120552942D01*
%TO.C,U3*%
X236157500Y-100042500D02*
X237787500Y-100042500D01*
X237787500Y-100042500D02*
X237787500Y-101672500D01*
D11*
X237427500Y-108022500D02*
X237427500Y-100402500D01*
X224727500Y-100402500D02*
X224727500Y-108022500D01*
X224727500Y-108022500D02*
X237427500Y-108022500D01*
X237427500Y-100402500D02*
X224727500Y-100402500D01*
D13*
%TO.C,R13*%
X229060000Y-112314258D02*
X229060000Y-111839742D01*
X228015000Y-112314258D02*
X228015000Y-111839742D01*
%TO.C,Q2*%
X139319000Y-98539200D02*
X138669000Y-98539200D01*
X139319000Y-98539200D02*
X140994000Y-98539200D01*
X139319000Y-95419200D02*
X138669000Y-95419200D01*
X139319000Y-95419200D02*
X139969000Y-95419200D01*
%TO.C,R11*%
X233095000Y-95965742D02*
X233095000Y-96440258D01*
X234140000Y-95965742D02*
X234140000Y-96440258D01*
%TO.C,K1*%
X96790000Y-77852000D02*
X96790000Y-94552000D01*
X114040000Y-85852000D02*
X114040000Y-86552000D01*
X114040000Y-86552000D02*
X115240000Y-86552000D01*
X115240000Y-85852000D02*
X114040000Y-85852000D01*
X114640000Y-81702000D02*
X114640000Y-84852000D01*
X119490000Y-94552000D02*
X119490000Y-77852000D01*
X115240000Y-86552000D02*
X115240000Y-85852000D01*
X96790000Y-94552000D02*
X119490000Y-94552000D01*
X119490000Y-77852000D02*
X96790000Y-77852000D01*
X114640000Y-87552000D02*
X114640000Y-90702000D01*
X119750000Y-85202000D02*
X119750000Y-87202000D01*
X114440000Y-85852000D02*
X114840000Y-86552000D01*
%TO.C,R2*%
X140610858Y-109742500D02*
X140136342Y-109742500D01*
X140610858Y-108697500D02*
X140136342Y-108697500D01*
%TO.C,D3*%
X123340000Y-89672000D02*
X125580000Y-89672000D01*
X125580000Y-90512000D02*
X125580000Y-86272000D01*
X124460000Y-91162000D02*
X124460000Y-90512000D01*
X125580000Y-86272000D02*
X123340000Y-86272000D01*
X123340000Y-89792000D02*
X125580000Y-89792000D01*
X123340000Y-86272000D02*
X123340000Y-90512000D01*
X123340000Y-90512000D02*
X125580000Y-90512000D01*
X123340000Y-89912000D02*
X125580000Y-89912000D01*
X124460000Y-85622000D02*
X124460000Y-86272000D01*
%TO.C,R12*%
X230555000Y-95965742D02*
X230555000Y-96440258D01*
X231600000Y-95965742D02*
X231600000Y-96440258D01*
%TO.C,SW3*%
X211699050Y-79867595D02*
G75*
G03*
X211699050Y-79867595I-4579050J0D01*
G01*
X213170000Y-78257595D02*
X213170000Y-81397595D01*
X213170000Y-73677595D02*
X213170000Y-76397595D01*
X213170000Y-85977595D02*
X200870000Y-85977595D01*
X200870000Y-76397595D02*
X200870000Y-73677595D01*
X200870000Y-81397595D02*
X200870000Y-78257595D01*
X200870000Y-85977595D02*
X200870000Y-83257595D01*
X200870000Y-73677595D02*
X213170000Y-73677595D01*
X213170000Y-83257595D02*
X213170000Y-85977595D01*
D11*
%TO.C,J4*%
X168500000Y-103725200D02*
X168500000Y-104225200D01*
X159360000Y-101305200D02*
X168300000Y-101305200D01*
X168300000Y-103725200D02*
X168500000Y-103725200D01*
X168400000Y-103725200D02*
X168400000Y-104225200D01*
X168400000Y-113745200D02*
X168400000Y-114245200D01*
X168500000Y-124265200D02*
X168300000Y-124265200D01*
X168500000Y-113745200D02*
X168500000Y-114245200D01*
X168300000Y-126685200D02*
X159360000Y-126685200D01*
X161960000Y-104175200D02*
X163160000Y-104175200D01*
X160660000Y-111770200D02*
X160660000Y-102505200D01*
X167000000Y-102505200D02*
X167000000Y-125485200D01*
X163160000Y-104175200D02*
X162560000Y-104775200D01*
X168500000Y-114245200D02*
X168300000Y-114245200D01*
X168300000Y-101305200D02*
X168300000Y-126685200D01*
X160660000Y-116220200D02*
X159360000Y-116220200D01*
X162560000Y-104775200D02*
X161960000Y-104175200D01*
X168500000Y-123765200D02*
X168500000Y-124265200D01*
X160660000Y-102505200D02*
X167000000Y-102505200D01*
X168300000Y-113745200D02*
X168500000Y-113745200D01*
X159360000Y-111770200D02*
X160660000Y-111770200D01*
X159360000Y-126685200D02*
X159360000Y-101305200D01*
X167000000Y-125485200D02*
X160660000Y-125485200D01*
X168400000Y-123765200D02*
X168400000Y-124265200D01*
X160660000Y-125485200D02*
X160660000Y-116220200D01*
X168300000Y-123765200D02*
X168500000Y-123765200D01*
X168500000Y-104225200D02*
X168300000Y-104225200D01*
D13*
%TO.C,Q1*%
X125397500Y-81762000D02*
X124747500Y-81762000D01*
X125397500Y-78642000D02*
X126047500Y-78642000D01*
X125397500Y-78642000D02*
X124747500Y-78642000D01*
X125397500Y-81762000D02*
X127072500Y-81762000D01*
%TO.C,C2*%
X138926380Y-105583801D02*
X138645220Y-105583801D01*
X138926380Y-104563801D02*
X138645220Y-104563801D01*
%TO.C,R16*%
X129220700Y-80564258D02*
X129220700Y-80089742D01*
X130265700Y-80564258D02*
X130265700Y-80089742D01*
%TO.C,R3*%
X143242500Y-97341458D02*
X143242500Y-96866942D01*
X144287500Y-97341458D02*
X144287500Y-96866942D01*
%TO.C,R9*%
X226520000Y-95965742D02*
X226520000Y-96440258D01*
X225475000Y-95965742D02*
X225475000Y-96440258D01*
%TO.C,R7*%
X233095000Y-112314258D02*
X233095000Y-111839742D01*
X234140000Y-112314258D02*
X234140000Y-111839742D01*
%TO.C,C19*%
X134748663Y-118527600D02*
X133463100Y-118527600D01*
X130057537Y-118527600D02*
X131343100Y-118527600D01*
X135813100Y-119592037D02*
X135813100Y-125347600D01*
X134644350Y-117893850D02*
X133856850Y-117893850D01*
X134748663Y-118527600D02*
X135813100Y-119592037D01*
X135813100Y-125347600D02*
X133463100Y-125347600D01*
X134250600Y-117500100D02*
X134250600Y-118287600D01*
X130057537Y-118527600D02*
X128993100Y-119592037D01*
X128993100Y-119592037D02*
X128993100Y-125347600D01*
X128993100Y-125347600D02*
X131343100Y-125347600D01*
D14*
%TO.C,mouse-bite-2.54mm-slot*%
X176530000Y-84582000D02*
G75*
G03*
X173990000Y-84582000I-1270000J0D01*
G01*
X173990000Y-79502000D02*
G75*
G03*
X176530000Y-79502000I1270000J0D01*
G01*
D13*
%TO.C,R4*%
X99045500Y-97869742D02*
X99045500Y-98344258D01*
X100090500Y-97869742D02*
X100090500Y-98344258D01*
%TO.C,D1*%
X147666500Y-129281800D02*
X151551500Y-129281800D01*
X151551500Y-127011800D02*
X147666500Y-127011800D01*
X147666500Y-127011800D02*
X147666500Y-129281800D01*
%TO.C,C5*%
X197360000Y-101103175D02*
X197360000Y-100822015D01*
X196340000Y-101103175D02*
X196340000Y-100822015D01*
D14*
%TO.C,mouse-bite-2.54mm-slot*%
X176530000Y-123952000D02*
G75*
G03*
X173990000Y-123952000I-1270000J0D01*
G01*
X173990000Y-118872000D02*
G75*
G03*
X176530000Y-118872000I1270000J0D01*
G01*
D13*
%TO.C,SW2*%
X213170000Y-106117595D02*
X213170000Y-108837595D01*
X213170000Y-96537595D02*
X213170000Y-99257595D01*
X200870000Y-96537595D02*
X213170000Y-96537595D01*
X200870000Y-108837595D02*
X200870000Y-106117595D01*
X213170000Y-108837595D02*
X200870000Y-108837595D01*
X200870000Y-104257595D02*
X200870000Y-101117595D01*
X213170000Y-101117595D02*
X213170000Y-104257595D01*
X200870000Y-99257595D02*
X200870000Y-96537595D01*
X211699050Y-102727595D02*
G75*
G03*
X211699050Y-102727595I-4579050J0D01*
G01*
%TO.C,C17*%
X147742700Y-120980780D02*
X147742700Y-120699620D01*
X148762700Y-120980780D02*
X148762700Y-120699620D01*
%TO.C,J1*%
X89707500Y-111092000D02*
X89707500Y-78392000D01*
X77487500Y-78392000D02*
X77487500Y-111092000D01*
X77487500Y-88122000D02*
X78987500Y-87872000D01*
X78987500Y-92952000D02*
X78987500Y-91452000D01*
X78987500Y-78392000D02*
X80787500Y-78392000D01*
X78987500Y-96532000D02*
X77487500Y-96282000D01*
X77487500Y-101362000D02*
X77487500Y-103362000D01*
X77487500Y-98282000D02*
X78987500Y-98032000D01*
X78987500Y-101612000D02*
X77487500Y-101362000D01*
X78987500Y-82792000D02*
X78987500Y-81292000D01*
X77487500Y-103362000D02*
X78987500Y-103112000D01*
X77487500Y-108442000D02*
X78987500Y-108192000D01*
X78987500Y-98032000D02*
X78987500Y-96532000D01*
X77487500Y-81042000D02*
X77487500Y-83042000D01*
X77487500Y-91202000D02*
X77487500Y-93202000D01*
X78987500Y-111092000D02*
X78987500Y-78392000D01*
X77487500Y-93202000D02*
X78987500Y-92952000D01*
X77487500Y-83042000D02*
X78987500Y-82792000D01*
X77487500Y-106442000D02*
X77487500Y-108442000D01*
X78987500Y-86372000D02*
X77487500Y-86122000D01*
X78987500Y-81292000D02*
X77487500Y-81042000D01*
X78987500Y-103112000D02*
X78987500Y-101612000D01*
X78987500Y-91452000D02*
X77487500Y-91202000D01*
X77487500Y-111092000D02*
X89707500Y-111092000D01*
X80787500Y-78392000D02*
X80787500Y-111092000D01*
X89707500Y-78392000D02*
X77487500Y-78392000D01*
X77487500Y-96282000D02*
X77487500Y-98282000D01*
X78987500Y-106692000D02*
X77487500Y-106442000D01*
X90507500Y-82342000D02*
X89907500Y-82042000D01*
X78987500Y-108192000D02*
X78987500Y-106692000D01*
X77487500Y-86122000D02*
X77487500Y-88122000D01*
X90507500Y-81742000D02*
X90507500Y-82342000D01*
X78987500Y-87872000D02*
X78987500Y-86372000D01*
X89907500Y-82042000D02*
X90507500Y-81742000D01*
X80787500Y-111092000D02*
X78987500Y-111092000D01*
%TO.C,D4*%
X112550000Y-117087600D02*
X105250000Y-117087600D01*
X112550000Y-121387600D02*
X105250000Y-121387600D01*
X112550000Y-121387600D02*
X112550000Y-117087600D01*
%TO.C,R8*%
X230555000Y-112314258D02*
X230555000Y-111839742D01*
X231600000Y-112314258D02*
X231600000Y-111839742D01*
%TO.C,R1*%
X144827258Y-99680500D02*
X144352742Y-99680500D01*
X144827258Y-100725500D02*
X144352742Y-100725500D01*
%TO.C,R22*%
X150763758Y-117718300D02*
X150289242Y-117718300D01*
X150763758Y-118763300D02*
X150289242Y-118763300D01*
%TO.C,C3*%
X140564180Y-107698000D02*
X140283020Y-107698000D01*
X140564180Y-106678000D02*
X140283020Y-106678000D01*
%TO.C,R14*%
X129910100Y-91614258D02*
X129910100Y-91139742D01*
X128865100Y-91614258D02*
X128865100Y-91139742D01*
%TO.C,C4*%
X197360000Y-123963175D02*
X197360000Y-123682015D01*
X196340000Y-123963175D02*
X196340000Y-123682015D01*
%TO.C,SW1*%
X213170000Y-123977595D02*
X213170000Y-127117595D01*
X200870000Y-122117595D02*
X200870000Y-119397595D01*
X200870000Y-127117595D02*
X200870000Y-123977595D01*
X213170000Y-131697595D02*
X200870000Y-131697595D01*
X200870000Y-119397595D02*
X213170000Y-119397595D01*
X213170000Y-128977595D02*
X213170000Y-131697595D01*
X213170000Y-119397595D02*
X213170000Y-122117595D01*
X200870000Y-131697595D02*
X200870000Y-128977595D01*
X211699050Y-125587595D02*
G75*
G03*
X211699050Y-125587595I-4579050J0D01*
G01*
%TO.C,R18*%
X140610858Y-112761500D02*
X140136342Y-112761500D01*
X140610858Y-113806500D02*
X140136342Y-113806500D01*
%TO.C,J3*%
X165160000Y-97850000D02*
X163830000Y-97850000D01*
X165160000Y-95250000D02*
X165160000Y-87570000D01*
X165160000Y-87570000D02*
X162500000Y-87570000D01*
X162500000Y-95250000D02*
X162500000Y-87570000D01*
X165160000Y-96520000D02*
X165160000Y-97850000D01*
X165160000Y-95250000D02*
X162500000Y-95250000D01*
%TD*%
M02*
