%TF.GenerationSoftware,KiCad,Pcbnew,(6.0.8-1)-1*%
%TF.CreationDate,2022-12-21T11:45:43+03:00*%
%TF.ProjectId,MilkPompV2,4d696c6b-506f-46d7-9056-322e6b696361,V2*%
%TF.SameCoordinates,Original*%
%TF.FileFunction,Profile,NP*%
%FSLAX46Y46*%
G04 Gerber Fmt 4.6, Leading zero omitted, Abs format (unit mm)*
G04 Created by KiCad (PCBNEW (6.0.8-1)-1) date 2022-12-21 11:45:43*
%MOMM*%
%LPD*%
G01*
G04 APERTURE LIST*
%TA.AperFunction,Profile*%
%ADD10C,0.100000*%
%TD*%
G04 APERTURE END LIST*
D10*
X173990000Y-118872000D02*
G75*
G03*
X176530000Y-118872000I1270000J0D01*
G01*
X176530000Y-123952000D02*
G75*
G03*
X173990000Y-123952000I-1270000J0D01*
G01*
X171450000Y-135890000D02*
G75*
G03*
X173990000Y-133350000I0J2540000D01*
G01*
X173990000Y-79502000D02*
G75*
G03*
X176530000Y-79502000I1270000J0D01*
G01*
X179070000Y-135890000D02*
X237490000Y-135890000D01*
X176530000Y-84582000D02*
G75*
G03*
X173990000Y-84582000I-1270000J0D01*
G01*
X173990000Y-71120000D02*
G75*
G03*
X171450000Y-68580000I-2540000J0D01*
G01*
X82550000Y-68580000D02*
G75*
G03*
X80010000Y-71120000I0J-2540000D01*
G01*
X176530000Y-98298000D02*
X176530000Y-84582000D01*
X176530000Y-133350000D02*
G75*
G03*
X179070000Y-135890000I2540000J0D01*
G01*
X173990000Y-98298000D02*
X173990000Y-84582000D01*
X80010000Y-133350000D02*
G75*
G03*
X82550000Y-135890000I2540000J0D01*
G01*
X82550000Y-68580000D02*
X171450000Y-68580000D01*
X173990000Y-98298000D02*
G75*
G03*
X176530000Y-98298000I1270000J0D01*
G01*
X237490000Y-68580000D02*
X179070000Y-68580000D01*
X173990000Y-133350000D02*
X173990000Y-123952000D01*
X240030000Y-133350000D02*
X240030000Y-71120000D01*
X240030000Y-71120000D02*
G75*
G03*
X237490000Y-68580000I-2540000J0D01*
G01*
X173990000Y-71120000D02*
X173990000Y-79502000D01*
X171450000Y-135890000D02*
X82550000Y-135890000D01*
X80010000Y-133350000D02*
X80010000Y-71120000D01*
X237490000Y-135890000D02*
G75*
G03*
X240030000Y-133350000I0J2540000D01*
G01*
X179070000Y-68580000D02*
G75*
G03*
X176530000Y-71120000I0J-2540000D01*
G01*
X173990000Y-118872000D02*
X173990000Y-103378000D01*
X176530000Y-79502000D02*
X176530000Y-71120000D01*
X176530000Y-103378000D02*
G75*
G03*
X173990000Y-103378000I-1270000J0D01*
G01*
X176530000Y-133350000D02*
X176530000Y-123952000D01*
X176530000Y-118872000D02*
X176530000Y-103378000D01*
M02*
