%TF.GenerationSoftware,KiCad,Pcbnew,(6.0.8-1)-1*%
%TF.CreationDate,2022-12-05T17:27:23+03:00*%
%TF.ProjectId,MilkPompV2,4d696c6b-506f-46d7-9056-322e6b696361,V1*%
%TF.SameCoordinates,Original*%
%TF.FileFunction,Paste,Top*%
%TF.FilePolarity,Positive*%
%FSLAX46Y46*%
G04 Gerber Fmt 4.6, Leading zero omitted, Abs format (unit mm)*
G04 Created by KiCad (PCBNEW (6.0.8-1)-1) date 2022-12-05 17:27:23*
%MOMM*%
%LPD*%
G01*
G04 APERTURE LIST*
G04 Aperture macros list*
%AMRoundRect*
0 Rectangle with rounded corners*
0 $1 Rounding radius*
0 $2 $3 $4 $5 $6 $7 $8 $9 X,Y pos of 4 corners*
0 Add a 4 corners polygon primitive as box body*
4,1,4,$2,$3,$4,$5,$6,$7,$8,$9,$2,$3,0*
0 Add four circle primitives for the rounded corners*
1,1,$1+$1,$2,$3*
1,1,$1+$1,$4,$5*
1,1,$1+$1,$6,$7*
1,1,$1+$1,$8,$9*
0 Add four rect primitives between the rounded corners*
20,1,$1+$1,$2,$3,$4,$5,0*
20,1,$1+$1,$4,$5,$6,$7,0*
20,1,$1+$1,$6,$7,$8,$9,0*
20,1,$1+$1,$8,$9,$2,$3,0*%
G04 Aperture macros list end*
%ADD10RoundRect,0.200000X0.275000X-0.200000X0.275000X0.200000X-0.275000X0.200000X-0.275000X-0.200000X0*%
%ADD11RoundRect,0.250000X-0.550000X1.500000X-0.550000X-1.500000X0.550000X-1.500000X0.550000X1.500000X0*%
%ADD12RoundRect,0.200000X0.200000X0.275000X-0.200000X0.275000X-0.200000X-0.275000X0.200000X-0.275000X0*%
%ADD13RoundRect,0.200000X-0.275000X0.200000X-0.275000X-0.200000X0.275000X-0.200000X0.275000X0.200000X0*%
%ADD14RoundRect,0.250000X-0.625000X0.375000X-0.625000X-0.375000X0.625000X-0.375000X0.625000X0.375000X0*%
%ADD15RoundRect,0.250000X1.500000X0.550000X-1.500000X0.550000X-1.500000X-0.550000X1.500000X-0.550000X0*%
%ADD16RoundRect,0.225000X-0.250000X0.225000X-0.250000X-0.225000X0.250000X-0.225000X0.250000X0.225000X0*%
%ADD17RoundRect,0.250000X-1.000000X1.950000X-1.000000X-1.950000X1.000000X-1.950000X1.000000X1.950000X0*%
%ADD18RoundRect,0.019500X-0.715500X-0.175500X0.715500X-0.175500X0.715500X0.175500X-0.715500X0.175500X0*%
%ADD19RoundRect,0.200000X-0.200000X-0.275000X0.200000X-0.275000X0.200000X0.275000X-0.200000X0.275000X0*%
%ADD20RoundRect,0.225000X0.250000X-0.225000X0.250000X0.225000X-0.250000X0.225000X-0.250000X-0.225000X0*%
%ADD21RoundRect,0.137500X-0.662500X-0.137500X0.662500X-0.137500X0.662500X0.137500X-0.662500X0.137500X0*%
%ADD22R,1.422400X0.431800*%
%ADD23R,1.574800X1.879600*%
%ADD24RoundRect,0.150000X0.587500X0.150000X-0.587500X0.150000X-0.587500X-0.150000X0.587500X-0.150000X0*%
%ADD25RoundRect,0.225000X0.225000X0.250000X-0.225000X0.250000X-0.225000X-0.250000X0.225000X-0.250000X0*%
%ADD26RoundRect,0.250000X-0.375000X-0.625000X0.375000X-0.625000X0.375000X0.625000X-0.375000X0.625000X0*%
%ADD27R,3.500000X2.300000*%
G04 APERTURE END LIST*
D10*
%TO.C,R6*%
X236157500Y-112902000D03*
X236157500Y-111252000D03*
%TD*%
D11*
%TO.C,C1*%
X132080000Y-102870000D03*
X132080000Y-108270000D03*
%TD*%
D12*
%TO.C,R17*%
X141198600Y-111252000D03*
X139548600Y-111252000D03*
%TD*%
D13*
%TO.C,R10*%
X228537500Y-95378000D03*
X228537500Y-97028000D03*
%TD*%
D14*
%TO.C,D2*%
X129387600Y-84582000D03*
X129387600Y-87382000D03*
%TD*%
D15*
%TO.C,C15*%
X145052300Y-126927600D03*
X139652300Y-126927600D03*
%TD*%
D13*
%TO.C,R20*%
X151351500Y-123613400D03*
X151351500Y-125263400D03*
%TD*%
D12*
%TO.C,R15*%
X141198600Y-100584000D03*
X139548600Y-100584000D03*
%TD*%
D14*
%TO.C,F1*%
X98298000Y-119237600D03*
X98298000Y-122037600D03*
%TD*%
D16*
%TO.C,C18*%
X137668000Y-120319800D03*
X137668000Y-121869800D03*
%TD*%
D17*
%TO.C,C16*%
X121920000Y-119237600D03*
X121920000Y-127637600D03*
%TD*%
D12*
%TO.C,R19*%
X141198600Y-115497600D03*
X139548600Y-115497600D03*
%TD*%
D18*
%TO.C,U1*%
X145466000Y-103120000D03*
X145466000Y-103770000D03*
X145466000Y-104420000D03*
X145466000Y-105070000D03*
X145466000Y-105720000D03*
X145466000Y-106370000D03*
X145466000Y-107020000D03*
X145466000Y-107670000D03*
X145466000Y-108320000D03*
X145466000Y-108970000D03*
X151206000Y-108970000D03*
X151206000Y-108320000D03*
X151206000Y-107670000D03*
X151206000Y-107020000D03*
X151206000Y-106370000D03*
X151206000Y-105720000D03*
X151206000Y-105070000D03*
X151206000Y-104420000D03*
X151206000Y-103770000D03*
X151206000Y-103120000D03*
%TD*%
D19*
%TO.C,R5*%
X139560800Y-102870000D03*
X141210800Y-102870000D03*
%TD*%
D20*
%TO.C,C6*%
X196850000Y-78877595D03*
X196850000Y-77327595D03*
%TD*%
D21*
%TO.C,U2*%
X99568000Y-106172000D03*
X99568000Y-107442000D03*
X106068000Y-107442000D03*
X106068000Y-106172000D03*
%TD*%
D22*
%TO.C,U4*%
X145052300Y-121615200D03*
X145052300Y-120980200D03*
X145052300Y-120319800D03*
X145052300Y-119684800D03*
X140683500Y-119684800D03*
X140683500Y-120319800D03*
X140683500Y-120980200D03*
X140683500Y-121615200D03*
D23*
X142867900Y-120650000D03*
%TD*%
D10*
%TO.C,R21*%
X151351500Y-121615200D03*
X151351500Y-119965200D03*
%TD*%
%TO.C,R13*%
X228537500Y-112902000D03*
X228537500Y-111252000D03*
%TD*%
D24*
%TO.C,Q2*%
X140256500Y-97929200D03*
X140256500Y-96029200D03*
X138381500Y-96979200D03*
%TD*%
D13*
%TO.C,R11*%
X233617500Y-95378000D03*
X233617500Y-97028000D03*
%TD*%
D12*
%TO.C,R2*%
X141198600Y-109220000D03*
X139548600Y-109220000D03*
%TD*%
D13*
%TO.C,R12*%
X231077500Y-95378000D03*
X231077500Y-97028000D03*
%TD*%
D24*
%TO.C,Q1*%
X126335000Y-81152000D03*
X126335000Y-79252000D03*
X124460000Y-80202000D03*
%TD*%
D25*
%TO.C,C2*%
X139560800Y-105073801D03*
X138010800Y-105073801D03*
%TD*%
D10*
%TO.C,R16*%
X129743200Y-81152000D03*
X129743200Y-79502000D03*
%TD*%
%TO.C,R3*%
X143765000Y-97929200D03*
X143765000Y-96279200D03*
%TD*%
D13*
%TO.C,R9*%
X225997500Y-95378000D03*
X225997500Y-97028000D03*
%TD*%
D10*
%TO.C,R7*%
X233617500Y-112902000D03*
X233617500Y-111252000D03*
%TD*%
D11*
%TO.C,C19*%
X132403100Y-119237600D03*
X132403100Y-124637600D03*
%TD*%
D13*
%TO.C,R4*%
X99568000Y-97282000D03*
X99568000Y-98932000D03*
%TD*%
D26*
%TO.C,D1*%
X148551500Y-128146800D03*
X151351500Y-128146800D03*
%TD*%
D20*
%TO.C,C5*%
X196850000Y-101737595D03*
X196850000Y-100187595D03*
%TD*%
%TO.C,C17*%
X148252700Y-121615200D03*
X148252700Y-120065200D03*
%TD*%
D27*
%TO.C,D4*%
X110650000Y-119237600D03*
X105250000Y-119237600D03*
%TD*%
D10*
%TO.C,R8*%
X231077500Y-112902000D03*
X231077500Y-111252000D03*
%TD*%
D12*
%TO.C,R1*%
X145415000Y-100203000D03*
X143765000Y-100203000D03*
%TD*%
%TO.C,R22*%
X151351500Y-118240800D03*
X149701500Y-118240800D03*
%TD*%
D25*
%TO.C,C3*%
X141198600Y-107188000D03*
X139648600Y-107188000D03*
%TD*%
D10*
%TO.C,R14*%
X129387600Y-92202000D03*
X129387600Y-90552000D03*
%TD*%
D20*
%TO.C,C4*%
X196850000Y-124597595D03*
X196850000Y-123047595D03*
%TD*%
D12*
%TO.C,R18*%
X141198600Y-113284000D03*
X139548600Y-113284000D03*
%TD*%
M02*
